<?xml version="1.0" standalone="no"?>
<!DOCTYPE svg PUBLIC "-//W3C//DTD SVG 20010904//EN"
 "http://www.w3.org/TR/2001/REC-SVG-20010904/DTD/svg10.dtd">
<svg version="1.0" xmlns="http://www.w3.org/2000/svg"
 width="2048.000000pt" height="2048.000000pt" viewBox="0 0 2048.000000 2048.000000"
 preserveAspectRatio="xMidYMid meet">
<metadata>
Created by potrace 1.16, written by Peter Selinger 2001-2019
</metadata>
<g transform="translate(0.000000,2048.000000) scale(0.100000,-0.100000)"
fill="#000000" stroke="none">
<path d="M9580 15743 c-27 -5 -159 -43 -230 -66 -70 -23 -121 -47 -167 -78
-23 -16 -44 -29 -48 -29 -10 0 -167 -107 -223 -152 -88 -71 -255 -224 -292
-269 -98 -118 -190 -291 -219 -414 -6 -22 -15 -58 -20 -80 -36 -141 -45 -235
-46 -460 0 -215 1 -234 23 -288 36 -93 27 -147 -23 -147 -27 0 -70 37 -80 68
-9 32 -37 44 -74 31 -33 -12 -37 -19 -46 -99 -4 -30 -11 -73 -17 -94 -22 -87
-7 -278 37 -463 8 -34 15 -74 15 -90 0 -16 6 -37 14 -48 7 -11 16 -33 20 -49
16 -65 97 -166 203 -254 36 -29 55 -54 63 -80 24 -89 5 -135 -60 -146 -70 -11
-134 -51 -220 -138 -85 -85 -144 -166 -168 -228 -17 -47 -59 -173 -77 -235
-56 -195 -69 -215 -134 -215 -90 0 -171 24 -260 77 -37 22 -56 26 -126 27 -80
1 -84 0 -141 -39 -33 -22 -75 -51 -94 -66 -36 -27 -79 -50 -165 -89 -27 -12
-70 -32 -95 -43 -45 -22 -163 -132 -212 -198 -19 -26 -43 -42 -86 -57 -32 -12
-66 -22 -74 -22 -19 0 -144 -37 -186 -56 -18 -8 -40 -14 -48 -14 -24 0 -220
-98 -291 -144 -33 -23 -66 -51 -72 -64 -6 -12 -23 -27 -38 -33 -16 -6 -37 -15
-48 -20 -11 -4 -144 -10 -295 -12 -259 -4 -278 -6 -325 -27 -92 -42 -189 -136
-220 -215 -39 -101 -65 -186 -65 -214 0 -19 -6 -60 -14 -90 -16 -62 -31 -151
-47 -281 -5 -47 -16 -125 -24 -175 -8 -49 -17 -112 -20 -138 -10 -73 -32 -116
-94 -182 -238 -256 -290 -328 -330 -457 -12 -38 -18 -144 -9 -153 7 -7 19 -7
140 1 l96 7 8 -79 c9 -96 -10 -405 -31 -506 -8 -40 -22 -104 -30 -143 -8 -38
-19 -99 -24 -135 -6 -36 -19 -126 -31 -200 -11 -74 -26 -172 -32 -217 l-11
-82 110 -223 c297 -597 657 -1104 1123 -1582 522 -535 1068 -933 1725 -1256
645 -318 1283 -508 1990 -595 280 -34 466 -45 769 -45 405 0 703 25 1084 91
961 165 1886 565 2667 1151 307 231 642 534 850 769 28 31 78 88 112 125 106
119 173 206 166 217 -3 5 -2 7 4 4 11 -7 30 13 90 94 31 43 39 59 31 72 -5 10
-15 14 -21 11 -7 -4 -7 -1 1 7 11 12 15 11 24 -4 9 -18 11 -18 29 -1 21 19 26
40 7 28 -7 -5 -8 -3 -4 5 5 7 10 10 13 7 8 -8 73 71 76 91 0 4 9 17 19 28 17
17 17 21 4 31 -9 6 -40 10 -71 9 -30 -2 -58 1 -61 6 -10 16 -41 9 -60 -13 -10
-12 -13 -18 -6 -14 22 13 61 17 67 6 4 -6 -1 -7 -11 -3 -11 4 -15 3 -10 -5 4
-7 0 -10 -13 -7 -10 2 -27 -3 -38 -11 -17 -13 -16 -14 9 -10 21 4 26 1 21 -12
-5 -11 -8 -12 -11 -4 -3 10 -7 10 -18 1 -11 -9 -16 -6 -24 12 -8 20 -9 20 -8
4 2 -11 -2 -21 -7 -22 -6 -2 -10 6 -10 16 0 11 -3 22 -6 26 -4 3 -6 -4 -5 -17
1 -17 -4 -23 -21 -23 -29 0 -35 -8 -37 -49 -1 -27 2 -32 11 -24 12 10 18 -1
14 -25 -1 -5 3 -5 9 -2 6 4 20 -4 31 -17 20 -22 25 -24 62 -27 9 0 17 -5 17
-11 0 -5 -7 -7 -15 -4 -11 5 -13 2 -8 -12 4 -11 3 -15 -4 -11 -6 4 -13 0 -17
-8 -3 -8 -11 -15 -18 -15 -9 0 -9 3 2 11 12 8 10 9 -8 4 -13 -4 -29 -2 -37 5
-9 8 -15 8 -20 0 -3 -5 4 -14 16 -18 l23 -9 -22 -5 c-17 -5 -22 -14 -22 -37 0
-25 -3 -29 -17 -24 -10 3 -23 12 -30 20 -19 24 -47 11 -54 -26 -10 -47 -41
-85 -75 -91 -16 -3 -29 -11 -29 -18 0 -7 -7 -17 -15 -22 -18 -12 -223 -13
-216 -2 3 5 -1 9 -8 9 -7 0 -13 -6 -13 -13 0 -7 4 -11 9 -8 4 3 8 1 8 -5 0 -5
-8 -15 -17 -20 -10 -6 -13 -11 -6 -11 6 0 18 6 26 14 15 16 217 28 217 14 0
-5 -46 -8 -102 -8 -56 0 -98 -3 -94 -7 4 -4 23 -6 43 -4 20 1 33 -1 29 -7 -3
-5 -17 -7 -31 -4 -15 2 -25 0 -25 -7 0 -6 0 -14 0 -18 0 -5 14 -9 30 -9 43 -2
44 -3 31 -17 -6 -8 -7 -18 -3 -23 4 -5 -3 0 -16 11 -37 31 -59 28 -53 -8 1 -5
-3 -6 -8 -3 -6 4 -6 18 0 38 5 17 7 33 5 36 -8 7 -26 -63 -22 -85 3 -15 0 -20
-12 -18 -9 1 -26 -5 -37 -14 -15 -12 -17 -12 -9 -1 6 8 10 23 9 33 -2 10 1 14
7 10 7 -4 9 2 6 15 -4 12 -2 20 3 16 5 -3 9 -1 9 5 0 5 -4 12 -9 16 -5 3 -8
17 -5 31 3 16 1 23 -6 19 -5 -3 -10 -1 -10 4 0 6 -11 11 -25 11 -14 0 -25 -5
-25 -11 0 -5 6 -7 13 -3 9 6 9 5 0 -8 -7 -8 -10 -18 -7 -21 4 -4 -4 -4 -16 -2
-12 2 -25 7 -29 11 -3 4 2 4 11 1 10 -3 20 -2 23 3 9 14 -49 12 -63 -2 -7 -7
-12 -29 -12 -49 0 -51 -42 -87 -93 -81 -31 3 -36 8 -42 38 -3 19 -10 32 -16
29 -5 -4 -9 -2 -9 2 0 5 -9 14 -20 20 -16 11 -18 10 -14 -2 9 -23 -13 -43 -46
-40 -22 2 -30 -2 -31 -14 -1 -9 -2 -25 -3 -35 -1 -20 -32 -31 -42 -15 -3 5
-10 6 -16 3 -7 -4 -8 -2 -4 4 4 7 2 12 -3 12 -6 0 -11 -6 -11 -12 0 -10 -2
-10 -8 -1 -4 7 -14 11 -22 10 -19 -3 -57 -29 -58 -40 0 -5 -3 -12 -7 -15 -4
-4 -5 0 -3 8 2 10 -5 15 -22 15 -20 0 -25 -6 -26 -25 -1 -36 6 -50 25 -51 11
0 9 -3 -6 -9 -23 -9 -23 -41 0 -36 7 1 9 1 4 -1 -4 -3 -5 -8 -2 -13 3 -5 0
-21 -5 -36 l-11 -27 -22 23 c-12 13 -22 30 -23 37 -4 27 -27 43 -60 43 -18 0
-35 -4 -39 -10 -3 -5 -12 -7 -20 -3 -11 4 -13 1 -9 -11 4 -10 13 -15 20 -12 8
3 11 0 7 -10 -3 -8 0 -20 5 -27 8 -9 8 -17 0 -27 -8 -12 -9 -12 -4 3 3 11 2
16 -4 12 -6 -3 -10 -16 -10 -28 0 -18 -2 -19 -10 -7 -9 13 -10 13 -11 0 -1 -8
-1 -19 0 -23 2 -14 -34 11 -69 49 -19 20 -29 34 -22 30 6 -4 12 -3 12 2 0 5
-18 12 -39 16 -29 4 -38 10 -37 23 1 14 -7 18 -39 18 -29 0 -40 -4 -40 -15 0
-8 -9 -20 -20 -25 -13 -7 -21 -23 -23 -45 -2 -19 -7 -38 -10 -42 -4 -4 -71 -8
-150 -9 -93 0 -140 -4 -136 -11 6 -9 -44 19 -56 32 -3 3 -11 6 -19 8 -9 2 -11
-3 -7 -15 5 -16 4 -15 -9 1 -8 11 -15 15 -15 8 0 -6 -7 -9 -17 -5 -12 5 -14 3
-8 -8 8 -12 6 -12 -8 -1 -14 12 -16 11 -12 -8 3 -17 1 -19 -8 -11 -9 7 -22 6
-42 -5 -35 -18 -46 -33 -40 -55 3 -9 -1 -22 -9 -28 -12 -10 -13 -7 -6 23 8 38
0 46 -45 46 -24 0 -69 -45 -60 -60 3 -4 -2 -11 -11 -14 -10 -4 -13 -2 -8 7 5
8 2 7 -9 -2 -14 -11 -17 -11 -17 0 0 11 -2 11 -9 -1 -6 -8 -7 -19 -3 -25 3 -5
-1 -4 -10 2 -8 7 -19 9 -24 5 -5 -4 -1 2 9 14 16 19 16 23 2 34 -26 22 -81 -8
-76 -42 0 -4 -7 -4 -17 -1 -15 6 -16 5 -2 -13 11 -15 11 -16 0 -6 -18 16 -44
16 -34 0 6 -10 4 -10 -8 0 -13 10 -17 10 -20 0 -3 -8 -6 -7 -10 4 -5 11 -1 15
13 14 10 0 19 4 19 9 0 13 -21 14 -37 3 -6 -5 -14 -5 -17 1 -4 5 -15 8 -26 6
-11 -2 -20 2 -20 8 0 8 -3 8 -9 -1 -9 -15 -20 -15 -37 -1 -14 12 -24 1 -17
-18 5 -12 7 -12 14 -1 6 9 9 9 9 1 0 -6 -5 -15 -10 -18 -6 -4 -8 -11 -5 -16 4
-5 1 -9 -5 -9 -7 0 -10 7 -6 15 3 8 1 15 -4 15 -9 0 -6 32 4 48 2 4 -7 9 -20
10 -15 1 -23 -2 -19 -8 4 -6 3 -10 -2 -9 -19 3 -31 -2 -37 -17 -5 -14 -4 -15
8 -5 11 9 15 9 19 -1 4 -10 6 -10 6 0 1 6 6 12 13 12 6 0 8 -3 5 -7 -4 -3 -3
-11 2 -17 14 -18 20 -56 10 -62 -5 -3 -7 -10 -4 -15 6 -9 -19 -14 -40 -9 -5 1
-15 3 -22 3 -7 0 -11 5 -10 11 1 5 -4 11 -10 12 -7 1 -14 2 -15 3 -2 2 -13 4
-26 7 -15 3 -21 0 -16 -7 4 -8 1 -8 -12 -1 -11 5 -25 7 -31 5 -8 -3 -13 3 -12
14 0 10 3 13 5 7 3 -6 24 -9 49 -8 30 2 45 -1 45 -9 0 -7 4 -6 10 3 9 13 10
13 10 0 0 -13 2 -13 11 0 9 13 10 12 5 -2 -3 -10 0 -20 7 -24 7 -4 9 -4 5 1
-4 4 -3 15 2 24 8 15 1 17 -57 16 -68 0 -130 25 -116 48 4 7 -2 5 -12 -3 -10
-8 -16 -10 -12 -3 4 6 3 15 -3 18 -6 4 -10 3 -9 -2 4 -21 -2 -24 -18 -12 -16
12 -17 12 -6 -2 18 -23 -2 -39 -49 -39 -43 0 -64 25 -35 42 10 5 17 17 17 26
0 13 -5 11 -24 -9 -14 -15 -41 -30 -60 -33 -21 -4 -36 -13 -36 -21 0 -17 17
-29 24 -17 4 7 76 9 84 2 8 -8 68 -4 74 5 4 5 6 -7 4 -27 -3 -32 -36 -87 -36
-60 0 6 -8 9 -17 7 -10 -1 -26 4 -35 13 -10 8 -18 12 -18 7 0 -4 -7 -2 -15 5
-8 7 -15 9 -15 4 0 -4 -10 2 -23 14 -13 12 -27 19 -32 15 -4 -5 -5 -3 -1 4 3
6 2 14 -3 17 -5 3 -12 -1 -15 -9 -6 -16 -49 -16 -63 0 -4 4 -3 5 4 1 6 -3 14
-2 18 4 4 6 -5 10 -21 10 -24 0 -26 3 -22 30 3 17 1 33 -3 36 -5 2 -5 12 -2
21 4 10 2 14 -5 9 -6 -3 -13 -2 -17 4 -4 6 -10 8 -15 5 -5 -3 -12 0 -16 6 -4
7 -3 9 3 6 5 -3 10 0 10 7 0 8 -8 11 -20 8 -12 -3 -18 -1 -14 4 3 6 -5 10 -18
10 -13 0 -21 -4 -19 -8 3 -5 9 -6 14 -3 11 7 7 -22 -5 -32 -4 -4 -5 -2 -1 5 5
9 1 15 -13 19 -12 3 -18 10 -14 17 4 6 -1 5 -10 -3 -9 -7 -17 -10 -17 -5 0 4
-7 -1 -16 -12 -8 -10 -13 -14 -10 -7 4 6 1 15 -5 19 -8 4 -9 3 -5 -4 4 -7 2
-12 -5 -12 -7 0 -4 -7 7 -16 10 -8 13 -13 7 -9 -7 3 -13 1 -13 -5 0 -13 42 -9
52 5 4 6 8 2 8 -9 0 -16 2 -17 17 -5 11 10 14 10 9 2 -4 -8 -1 -13 9 -13 9 0
14 4 10 9 -3 5 -1 13 5 16 6 4 9 1 8 -7 -2 -7 3 -12 11 -10 11 2 12 0 4 -10
-6 -7 -9 -27 -7 -45 2 -18 -2 -38 -9 -45 -8 -7 -15 -17 -16 -23 -5 -18 -10
-17 -7 1 2 10 0 33 -4 51 -5 19 -3 36 4 44 7 8 4 8 -7 -1 -20 -15 -37 -15
-149 -6 -40 4 -69 2 -73 -4 -4 -6 -11 -7 -17 -4 -7 5 -8 2 -3 -6 6 -10 3 -12
-13 -8 -15 4 -19 2 -15 -9 4 -11 -2 -14 -28 -11 -26 2 -34 8 -35 24 -1 11 5
21 12 21 8 0 11 -5 6 -12 -4 -6 0 -3 10 7 12 13 18 15 21 6 3 -8 6 -6 6 5 1
10 6 15 11 12 6 -4 9 -1 8 7 -2 7 3 12 11 10 12 -3 12 -1 0 14 -9 12 -9 15 -1
10 7 -4 12 -2 12 8 0 8 -6 18 -12 22 -14 9 -51 14 -43 6 2 -3 0 -13 -5 -22 -7
-13 -5 -21 4 -29 10 -8 16 -9 19 -1 3 6 5 6 3 -1 -1 -7 -10 -13 -19 -15 -9 -1
-15 2 -11 7 3 5 -2 9 -11 9 -9 0 -14 -4 -11 -8 3 -5 -1 -9 -9 -9 -9 0 -11 5
-7 11 8 10 8 28 2 41 -1 3 -3 9 -4 14 0 5 -5 13 -10 18 -5 4 -6 3 -3 -3 7 -13
-17 -27 -27 -17 -10 10 -7 25 4 18 6 -4 9 -1 8 6 -2 7 4 13 12 14 8 0 15 7 15
15 1 8 5 14 11 13 5 -1 11 7 11 18 1 16 -3 14 -24 -11 -13 -16 -30 -30 -36
-30 -6 0 2 14 18 30 16 17 25 30 19 30 -5 0 -2 5 6 10 8 5 10 10 4 10 -6 0
-17 -7 -24 -15 -7 -8 -9 -15 -4 -15 4 0 -8 -14 -27 -31 -19 -16 -26 -27 -16
-24 13 6 16 3 11 -9 -7 -18 13 -49 26 -41 5 3 12 1 15 -5 4 -6 3 -9 -2 -8 -4
2 -8 -1 -8 -7 0 -5 4 -9 8 -7 5 1 6 -2 2 -8 -3 -6 -11 -8 -16 -5 -5 4 -9 1 -9
-6 0 -7 -7 -4 -15 7 -14 18 -14 18 -10 -3 5 -28 -22 -53 -31 -29 -3 9 -11 13
-17 9 -6 -4 -7 -1 -2 7 6 10 11 9 21 -4 6 -9 15 -13 18 -8 3 5 3 12 0 15 -4 3
-8 25 -9 49 -2 24 -11 47 -19 54 -13 9 -16 32 -16 108 0 128 -7 136 -124 136
-106 0 -118 10 -104 97 5 31 7 62 4 68 -3 8 5 12 25 10 16 -1 29 1 29 6 0 4
16 7 35 6 19 -1 35 -6 35 -10 0 -4 9 -3 21 3 12 7 18 18 15 26 -3 9 -1 12 5 9
5 -4 7 -16 4 -28 -5 -18 -3 -17 9 4 12 21 22 26 46 24 17 -1 33 1 36 6 3 5 0
8 -7 7 -6 -2 -14 4 -16 12 -4 12 -3 12 5 2 5 -8 13 -14 18 -15 5 -1 9 -13 9
-26 0 -13 9 -30 21 -37 18 -12 24 -11 53 10 19 14 40 22 49 19 11 -5 13 -3 7
7 -5 9 -4 11 4 6 6 -4 8 -13 4 -19 -4 -7 2 -5 13 3 10 8 16 11 12 6 -4 -4 2
-18 13 -30 16 -16 19 -29 15 -58 -4 -25 -2 -38 5 -38 6 0 8 7 5 15 -4 10 2 19
17 25 16 6 18 9 5 9 -12 1 -15 6 -11 17 5 13 7 13 14 2 5 -7 9 -8 10 -3 1 19
7 40 24 85 9 25 18 72 21 105 3 33 7 80 11 105 18 136 -9 312 -64 420 -7 14
-13 31 -13 38 0 40 -162 202 -201 202 -8 0 -26 8 -39 18 -20 13 -46 17 -126
17 -60 0 -107 -5 -115 -11 -8 -7 -30 -15 -49 -19 -19 -4 -42 -13 -50 -20 -26
-23 -131 -23 -153 0 -8 7 -28 17 -43 21 -16 4 -39 13 -50 21 -15 9 -56 14
-131 14 -112 0 -163 -7 -163 -21 0 -5 -10 -12 -22 -16 -31 -9 -74 -41 -125
-91 -55 -54 -57 -87 -8 -123 19 -14 35 -29 35 -33 0 -5 13 -25 29 -45 49 -62
71 -135 71 -238 0 -74 -3 -93 -16 -98 -11 -4 -15 -17 -13 -46 3 -31 -2 -44
-19 -61 -16 -14 -27 -18 -35 -11 -18 15 -66 10 -60 -6 4 -10 9 -10 20 -1 11 9
17 9 26 0 9 -10 8 -11 -8 -5 -18 7 -19 6 -6 -9 8 -10 11 -20 7 -24 -3 -3 -6 0
-6 7 0 7 -3 10 -7 7 -3 -4 -13 -1 -22 6 -30 26 -50 27 -57 4 -9 -25 -9 -23 1
-57 7 -21 5 -23 -6 -13 -8 6 -18 12 -24 13 -5 1 -9 6 -8 11 2 4 -5 5 -14 2
-10 -4 -14 -2 -9 5 3 6 2 14 -4 17 -8 5 -8 11 0 20 8 9 7 14 -3 18 -10 4 -13
-3 -12 -24 2 -27 -1 -29 -35 -29 -45 0 -60 16 -62 63 -1 27 -6 37 -22 41 -32
9 -58 7 -51 -3 3 -6 15 -8 27 -6 11 3 18 1 14 -2 -4 -4 -17 -8 -30 -9 -20 -1
-22 4 -20 38 2 34 0 37 -14 26 -12 -10 -14 -10 -8 0 4 7 1 12 -8 12 -9 0 -16
8 -16 18 0 11 -10 27 -22 38 -12 10 -18 13 -13 5 6 -11 4 -13 -7 -9 -12 5 -15
0 -13 -23 1 -16 1 -29 -2 -29 -5 0 -50 46 -78 80 -16 20 -17 22 -2 11 16 -12
18 -12 15 0 -2 8 -11 20 -20 27 -10 7 -18 18 -18 24 0 7 7 3 15 -8 8 -10 15
-14 15 -8 0 14 -65 76 -72 68 -4 -3 -4 4 -1 16 5 17 -3 30 -31 56 -40 37 -57
45 -35 17 13 -16 12 -17 -4 -4 -10 8 -15 21 -12 30 3 11 0 10 -10 -3 -11 -15
-15 -16 -15 -5 0 8 -12 28 -27 45 -16 17 -22 23 -15 14 20 -27 14 -35 -10 -14
-19 15 -20 16 -9 2 13 -17 8 -23 -14 -18 -5 1 -6 -2 -2 -6 10 -10 38 -14 32
-5 -2 4 2 8 10 8 13 0 13 -3 0 -17 -8 -9 -13 -19 -10 -22 3 -2 -1 -5 -9 -5 -8
0 -14 5 -13 11 1 6 -5 9 -13 7 -8 -2 -26 -4 -40 -5 -18 -2 -25 -8 -25 -22 1
-10 6 -18 11 -17 16 3 11 -45 -6 -59 -11 -11 -11 -9 0 6 18 23 18 19 0 41 -8
10 -15 26 -15 37 0 10 -4 17 -10 16 -5 -2 -9 -7 -7 -11 1 -5 -2 -6 -7 -3 -5 4
-8 16 -5 29 3 12 6 27 8 33 1 7 7 18 13 25 8 11 11 53 4 78 -1 2 -7 -2 -14 -8
-14 -11 -27 -5 -27 11 0 5 6 6 13 2 6 -4 9 -4 5 1 -4 4 -3 14 4 22 9 11 8 13
-2 11 -10 -2 -14 10 -14 44 -1 27 -7 53 -15 60 -9 8 -11 8 -7 1 3 -6 2 -14 -4
-18 -5 -3 -10 1 -10 9 0 8 -4 17 -8 20 -4 3 -7 -8 -6 -25 1 -16 -2 -31 -6 -34
-5 -3 -7 6 -6 20 2 13 -1 22 -6 19 -6 -4 -8 -17 -5 -30 5 -30 -1 -31 -13 -1
-9 22 -9 22 -9 0 -1 -12 4 -23 11 -25 6 -2 13 -11 14 -19 2 -7 8 -27 13 -44
l11 -30 -5 30 c-10 55 -10 60 0 63 6 1 10 -7 10 -17 0 -11 3 -22 7 -26 4 -4 3
-18 -3 -32 -5 -15 -5 -22 0 -18 5 3 13 0 17 -6 5 -8 3 -9 -6 -4 -10 6 -11 4
-4 -6 4 -8 9 -20 10 -27 2 -11 0 -11 -14 0 -13 11 -14 11 -7 -1 6 -10 4 -12
-5 -6 -9 6 -11 4 -5 -5 6 -9 4 -11 -6 -5 -11 7 -12 6 -2 -7 7 -8 9 -19 5 -24
-4 -5 -3 -6 2 -1 5 4 17 0 26 -8 14 -13 17 -13 17 0 0 8 -4 12 -8 9 -4 -2 -10
0 -13 5 -10 16 10 21 27 8 14 -11 14 -15 2 -37 -8 -14 -14 -19 -15 -12 0 7 -5
10 -10 7 -6 -4 -9 -3 -8 2 2 4 -1 8 -7 8 -5 0 -9 -3 -8 -7 1 -3 -3 -5 -10 -4
-23 3 -35 16 -32 34 1 9 -4 24 -12 34 -10 11 -11 18 -4 23 6 3 11 13 11 22 0
11 -5 9 -18 -7 -13 -16 -19 -19 -20 -9 -1 8 -3 27 -6 42 -4 23 -2 26 10 16 8
-6 14 -8 14 -3 0 5 8 0 17 -11 12 -16 14 -16 10 -3 -3 10 -2 20 4 24 6 4 7 10
0 17 -5 7 -9 16 -9 20 0 5 -3 11 -5 14 -8 7 -3 -20 6 -34 4 -6 3 -14 -3 -18
-5 -3 -10 1 -10 9 0 8 -5 18 -12 22 -8 5 -9 2 -5 -9 9 -24 0 -21 -14 4 -6 12
-7 19 -1 15 16 -10 32 18 29 51 -1 17 -5 29 -9 27 -6 -4 -18 22 -17 39 0 4 -8
16 -19 25 -10 9 -11 13 -2 7 12 -7 13 -7 3 5 -7 7 -23 15 -35 17 -34 5 -48 11
-48 22 0 5 8 8 18 6 11 -2 19 3 19 11 0 11 -3 11 -16 1 -12 -10 -14 -9 -8 5 4
13 2 15 -10 11 -10 -4 -14 -2 -9 5 3 6 1 14 -5 18 -7 4 -9 3 -5 -4 3 -6 2 -13
-4 -17 -6 -4 -10 7 -10 26 0 41 -7 35 -12 -11 -3 -31 0 -35 20 -34 21 1 22 0
9 -20 -8 -11 -17 -19 -20 -16 -4 3 -12 -4 -20 -14 -11 -15 -16 -16 -22 -6 -5
9 -4 11 3 6 17 -10 15 4 -3 24 -13 14 -12 16 6 17 16 2 19 -2 14 -15 -5 -14
-4 -15 7 -4 11 11 10 16 -6 28 -11 8 -14 14 -8 14 7 0 11 3 10 8 -5 16 12 73
21 68 5 -3 7 11 5 30 l-3 37 27 -24 c20 -18 23 -19 9 -3 -9 11 -14 24 -10 29
5 4 3 5 -3 2 -7 -4 -15 0 -18 9 -9 24 -7 28 8 15 11 -9 16 -9 22 1 11 16 15
42 6 33 -4 -4 -7 -11 -7 -16 0 -5 -4 -8 -10 -6 -5 1 -9 10 -9 19 1 10 -3 15
-10 11 -6 -4 -19 -8 -28 -8 -14 -1 -15 1 -6 13 9 11 9 13 -3 12 -7 -1 -29 -2
-47 -1 -24 1 -31 5 -26 14 5 8 2 8 -9 -2 -9 -7 -17 -9 -17 -3 0 18 -40 21 -57
4 -16 -16 -16 -16 -10 0 3 10 2 20 -3 23 -9 6 -14 -8 -11 -28 0 -4 -2 -6 -6
-6 -22 4 -32 -3 -35 -23 -5 -40 -23 -14 -24 35 0 43 8 64 29 66 8 1 8 5 1 26
-3 8 -10 13 -14 10 -5 -3 -6 5 -3 17 4 19 3 20 -6 8 -9 -13 -11 -12 -11 3 0
10 -5 15 -10 12 -6 -4 -7 -13 -1 -24 7 -13 6 -18 -4 -18 -8 0 -12 4 -8 9 3 6
-8 23 -23 40 -16 17 -24 28 -17 24 6 -3 13 -3 16 1 2 5 2 3 1 -4 -2 -6 3 -16
10 -22 10 -8 17 -7 26 4 7 9 20 13 28 10 10 -3 12 0 8 10 -3 8 0 15 5 15 7 0
9 -9 6 -21 -3 -13 -1 -19 6 -16 7 3 11 9 10 15 -1 5 5 16 14 24 10 8 14 8 10
1 -4 -6 -3 -15 3 -18 7 -4 7 -11 2 -18 -5 -7 -8 -21 -6 -31 1 -11 -2 -29 -9
-40 -6 -12 -10 -24 -10 -27 1 -4 -6 -6 -15 -5 -9 0 -18 -3 -19 -9 -2 -5 7 -10
20 -10 16 0 25 9 35 35 19 54 23 127 7 134 -8 3 -17 1 -20 -4 -3 -5 -11 -7
-18 -5 -30 11 -93 12 -107 2 -8 -7 -6 -2 4 11 16 19 17 22 3 22 -9 0 -21 -8
-26 -17 -11 -19 -12 -17 -16 37 -1 17 -3 34 -4 39 0 5 -10 13 -22 16 -11 4
-18 9 -16 12 3 2 14 0 25 -6 15 -8 22 -8 25 2 2 6 3 -7 2 -31 -1 -23 2 -45 7
-49 7 -3 9 8 6 31 -2 20 0 36 5 36 5 0 4 6 -2 13 -6 8 -7 17 -3 22 4 4 -3 2
-15 -4 -24 -12 -26 -10 -24 24 2 17 0 17 -8 5 -8 -12 -11 -12 -11 -1 0 7 -6
11 -15 7 -8 -3 -15 0 -15 7 0 8 -4 6 -10 -3 -6 -10 -10 -11 -10 -2 0 6 -5 12
-11 12 -5 0 -7 -6 -3 -12 4 -8 3 -10 -2 -5 -5 5 -10 13 -10 18 -1 5 -2 12 -3
15 0 4 -9 0 -18 -7 -15 -11 -14 -10 1 9 19 22 32 30 22 13 -3 -5 2 -12 11 -15
10 -4 14 -4 10 0 -4 4 -1 14 6 22 10 13 9 14 -2 8 -8 -5 -6 3 5 20 18 27 18
28 1 21 -13 -5 -16 -3 -10 6 13 22 13 39 -1 28 -14 -11 -26 -5 -26 13 0 6 5 4
10 -4 7 -12 9 -10 7 7 -1 17 -5 20 -17 13 -12 -6 -17 -5 -17 5 0 8 5 12 10 8
5 -3 7 3 5 13 -2 11 -8 18 -14 17 -5 -1 -10 11 -10 25 -2 26 -1 26 9 5 5 -13
14 -23 19 -23 5 0 4 8 -1 18 -7 12 -4 24 10 41 26 32 16 41 -47 41 -30 0 -53
-4 -50 -8 3 -5 28 -8 55 -7 49 1 50 1 34 -17 -17 -19 -25 -23 -21 -10 2 4 -1
8 -6 10 -6 1 -11 -5 -12 -14 -1 -9 -6 -19 -10 -22 -4 -4 -4 1 -1 10 8 22 -15
42 -30 27 -6 -6 -9 -19 -6 -28 4 -9 3 -13 -2 -9 -4 4 -9 33 -11 65 -2 32 -9
60 -14 61 -6 2 -17 18 -24 36 -7 18 -28 49 -45 68 -31 36 -36 56 -16 70 6 5 4
8 -4 8 -10 0 -8 7 8 23 13 15 19 30 15 40 -3 9 -9 15 -14 12 -4 -2 -17 6 -29
19 -17 18 -21 31 -16 46 5 17 4 21 -6 15 -11 -6 -12 -5 -2 5 11 12 16 11 29
-6 15 -18 15 -18 4 4 -6 12 -15 22 -21 22 -6 0 -8 4 -5 9 3 4 -4 8 -16 7 -28
-1 -40 34 -23 68 8 15 10 28 4 31 -5 4 -9 12 -9 18 1 7 10 1 20 -12 11 -13 20
-18 20 -11 0 9 3 10 13 1 10 -8 17 -7 27 2 10 10 12 9 7 -4 -3 -9 1 -26 9 -37
9 -13 11 -23 4 -27 -5 -3 -10 -1 -10 6 0 7 -2 10 -5 7 -9 -9 23 -62 39 -64 9
-1 15 1 14 4 -4 13 23 52 32 47 5 -3 7 4 5 16 -5 25 -14 37 -16 21 -3 -22 -4
-27 -17 -47 -12 -18 -13 -17 -7 10 13 59 14 65 6 70 -5 2 -8 -3 -8 -13 0 -39
-3 -55 -10 -48 -4 4 -7 24 -6 44 l1 37 -8 -35 c-7 -32 -10 -30 -14 10 -1 8 3
21 9 29 7 11 7 13 -1 8 -7 -4 -15 0 -18 9 -5 13 -9 14 -21 4 -17 -14 -20 1 -4
17 9 9 7 11 -7 9 -11 -2 -25 1 -31 6 -14 11 -29 -14 -19 -31 4 -5 2 -12 -3
-15 -14 -9 -20 31 -6 51 13 19 16 55 4 48 -4 -3 -10 2 -13 11 -3 8 -10 13 -15
10 -5 -3 -11 1 -15 9 -5 15 9 31 17 18 2 -5 2 -1 -1 7 -5 19 -10 42 -12 55 0
6 -6 1 -13 -10 -11 -19 -13 -24 -16 -43 0 -4 -9 -8 -20 -9 -13 -1 -18 5 -18
23 0 13 4 21 9 18 5 -3 7 -13 3 -23 -5 -12 -4 -13 6 -4 8 8 9 16 2 25 -6 7 -9
21 -8 30 2 10 -2 16 -8 15 -6 -1 -11 4 -12 11 0 6 -4 12 -9 11 -5 0 -13 5 -17
13 -7 10 -9 10 -9 -2 0 -13 -2 -13 -11 0 -9 13 -10 12 -5 -2 3 -10 1 -18 -4
-18 -6 0 -10 7 -10 16 0 9 -5 12 -12 8 -8 -5 -9 -2 -5 10 6 14 3 17 -8 12 -9
-3 -17 0 -20 7 -8 27 -12 199 -4 186 5 -8 9 -9 9 -3 0 5 -5 15 -11 21 -14 14
7 13 31 -2 13 -7 13 -6 2 7 -10 12 -10 17 1 27 8 6 18 7 22 3 5 -4 5 -2 1 5
-8 14 4 22 38 25 30 3 78 45 51 45 -8 0 -13 -3 -10 -5 3 -3 0 -11 -6 -18 -9
-11 -15 -10 -35 2 -13 9 -22 20 -19 24 3 5 0 12 -6 16 -8 4 -9 3 -5 -4 4 -7 0
-12 -10 -12 -16 0 -15 -2 2 -22 l19 -23 -22 19 c-17 14 -20 22 -12 32 6 8 6
14 0 18 -5 4 -13 1 -17 -5 -5 -9 -10 -8 -18 2 -14 18 -53 20 -53 3 0 -11 3
-11 16 -1 14 11 14 10 2 -5 -7 -10 -27 -18 -44 -18 l-30 0 7 55 c3 31 2 55 -3
55 -5 0 -14 14 -20 30 -9 27 -8 29 8 21 13 -7 18 -6 18 4 0 8 -4 12 -9 9 -15
-9 -8 14 9 31 9 10 19 36 23 59 6 40 5 42 -19 44 -36 3 -80 50 -83 89 -1 17
-7 31 -13 30 -5 -1 -10 13 -9 31 0 17 -4 32 -9 32 -5 0 -7 9 -4 19 3 15 1 18
-11 14 -11 -5 -13 -3 -6 8 5 8 9 17 10 22 1 4 3 10 4 15 1 4 1 18 0 31 -1 13
3 21 8 17 6 -4 8 2 5 14 -4 16 -9 18 -19 9 -10 -8 -11 -6 -1 15 10 22 13 23
20 8 5 -12 6 -9 4 10 -3 19 0 25 10 21 7 -3 11 -9 8 -13 -6 -9 19 -20 46 -20
10 0 19 6 19 14 0 8 5 18 12 22 7 5 8 3 3 -7 -7 -12 -6 -12 7 -1 14 12 12 17
-25 52 -28 26 -44 35 -49 27 -6 -9 -8 -9 -8 1 0 6 -5 12 -11 12 -5 0 -7 -6 -3
-12 6 -10 4 -10 -8 0 -12 9 -18 10 -23 2 -5 -8 -10 -8 -20 0 -10 8 -15 8 -20
0 -5 -8 -11 -8 -19 -1 -7 6 -16 8 -19 5 -3 -4 -4 6 -1 21 3 15 1 24 -5 21 -17
-11 -36 27 -37 76 l0 48 43 0 c46 0 54 -12 29 -45 -10 -14 -11 -26 -4 -45 5
-14 9 -26 9 -27 -5 -17 1 -25 9 -13 9 13 10 13 10 0 0 -13 1 -13 10 0 9 13 10
13 10 0 0 -13 1 -13 10 0 6 9 10 10 10 3 0 -7 9 -17 20 -23 14 -7 20 -7 20 0
0 5 -8 10 -17 11 -13 0 -14 2 -4 6 8 3 20 -2 28 -13 10 -13 13 -14 13 -3 0 12
2 12 9 -1 6 -8 8 -17 5 -21 -2 -4 0 -10 5 -13 5 -3 11 4 14 15 3 12 3 18 0 15
-3 -3 -12 2 -19 12 -12 17 -16 18 -53 21 -14 1 -19 7 -16 22 4 18 2 19 -12 7
-15 -11 -16 -11 -10 7 7 20 7 20 -8 1 -11 -15 -15 -16 -15 -5 0 8 6 21 13 28
10 10 9 12 -2 9 -7 -2 -16 3 -19 11 -2 8 -1 11 4 8 15 -9 9 42 -6 56 -10 9
-11 9 -6 0 4 -7 3 -13 -1 -13 -5 0 -15 6 -22 13 -11 10 -13 10 -7 0 4 -7 3
-13 -1 -13 -5 0 -15 6 -22 13 -11 10 -13 10 -7 0 5 -8 1 -13 -9 -13 -9 0 -14
3 -12 8 3 4 -17 6 -45 5 -42 -1 -49 1 -44 14 5 12 4 13 -7 5 -11 -9 -13 -7
-13 11 1 12 7 26 14 30 6 4 12 17 12 28 0 11 4 17 10 14 6 -4 7 1 3 11 -5 13
-3 15 7 9 10 -6 11 -4 4 6 -12 20 -14 40 -3 33 5 -3 7 -11 3 -17 -3 -7 2 -3
10 7 9 11 16 23 16 27 0 11 -42 39 -50 34 -4 -2 -7 2 -7 10 0 8 5 11 11 8 6
-4 3 2 -6 13 -14 16 -15 23 -5 33 9 10 9 12 -3 9 -9 -2 -16 6 -18 21 -2 15 0
21 7 17 7 -5 8 -1 4 10 -4 11 -3 15 5 10 17 -11 25 13 8 29 -19 20 -25 19 -21
-2 1 -10 -2 -27 -8 -38 -6 -11 -11 -22 -10 -25 1 -3 -8 -7 -20 -7 -20 -2 -20
-1 -4 8 9 6 14 15 11 21 -4 7 -2 8 4 4 8 -5 9 7 5 41 -3 26 -6 58 -7 70 -1 16
-4 19 -14 11 -7 -6 -15 -8 -19 -4 -3 3 -2 6 4 6 14 0 12 28 -2 34 -13 5 -8 56
5 56 11 0 7 -33 -5 -43 -6 -5 -3 -7 7 -3 10 3 19 -2 22 -12 3 -13 4 -12 3 3
-1 11 3 27 8 35 8 13 7 13 -8 1 -9 -7 -17 -9 -17 -3 0 5 7 15 15 22 8 7 15 19
15 26 0 12 -4 12 -24 -1 -22 -15 -23 -14 -22 12 1 22 5 27 21 25 11 -2 22 -8
23 -13 2 -5 7 -7 11 -5 4 3 5 -9 3 -26 -3 -22 -1 -29 7 -24 6 4 9 13 5 19 -3
7 2 3 10 -7 16 -20 21 -13 17 22 -1 6 4 12 10 12 7 0 9 -3 6 -7 -4 -3 -1 -13
5 -21 11 -13 18 -32 20 -59 1 -13 28 -5 28 8 0 5 5 9 11 9 7 0 20 10 31 23 20
22 20 22 -2 25 -29 5 -53 -5 -44 -19 5 -8 2 -9 -11 -1 -10 5 -20 18 -22 28
-10 48 -11 64 -2 70 5 3 8 0 7 -7 -2 -7 6 -13 17 -14 11 0 26 -4 33 -8 7 -5
15 -2 18 8 6 13 8 14 15 3 7 -10 9 -10 9 3 0 8 -10 25 -23 37 -18 17 -26 19
-35 10 -14 -14 -44 -20 -36 -7 3 5 0 9 -5 9 -6 0 -11 4 -11 10 0 5 6 7 14 4 8
-3 31 -1 52 5 22 5 116 11 209 12 94 1 195 8 225 15 54 12 377 19 1295 28 198
2 419 6 490 10 72 3 182 8 245 11 143 7 220 23 220 46 0 28 -50 119 -103 188
-28 35 -65 101 -84 145 -19 45 -45 106 -60 137 -27 59 -37 135 -20 157 5 6 6
12 2 12 -4 0 -2 6 4 13 8 10 7 14 -4 14 -8 0 -11 -5 -8 -10 3 -6 1 -7 -5 -4
-11 8 -5 44 11 65 7 9 1 27 -20 60 -28 45 -44 83 -71 172 -20 64 0 204 39 267
25 40 44 51 93 55 30 2 36 6 36 24 0 35 22 46 51 27 13 -9 28 -23 32 -30 15
-24 27 -3 27 48 0 43 -3 51 -24 59 -13 4 -33 24 -45 44 -30 48 -77 77 -108 65
-36 -13 -35 -14 -111 46 -39 30 -75 55 -80 55 -5 0 -19 9 -32 20 -13 11 -34
20 -47 20 -12 0 -23 5 -23 10 0 6 -11 16 -25 22 -22 10 -26 17 -23 47 2 22 8
35 15 34 7 -2 10 3 7 11 -3 8 0 17 5 21 6 3 8 11 5 17 -4 6 -2 8 4 4 6 -3 9
-15 7 -25 -2 -13 2 -18 13 -16 9 2 21 4 26 4 5 1 6 4 3 8 -4 3 -1 13 6 21 9
13 9 14 0 8 -7 -4 -13 -2 -13 3 0 6 21 12 48 13 66 2 70 2 79 12 5 5 2 6 -7 2
-8 -4 -4 2 10 13 35 28 55 26 101 -11 38 -32 149 -184 149 -205 0 -30 45 -106
80 -133 34 -27 41 -29 59 -18 27 17 44 70 36 109 -4 17 -8 54 -9 84 -3 77 -43
196 -106 313 -21 39 -117 132 -172 168 -21 13 -48 24 -62 24 -23 0 -41 -23
-31 -40 12 -19 7 -118 -7 -145 l-15 -28 -17 24 c-9 13 -27 40 -39 59 -12 19
-42 48 -66 65 -68 47 -121 104 -142 152 -10 24 -25 46 -34 49 -25 10 -20 87 8
121 23 28 39 95 52 213 8 72 14 90 28 90 12 0 40 -61 51 -112 10 -46 72 -142
119 -185 25 -23 71 -58 103 -79 33 -21 79 -56 104 -77 48 -42 105 -74 142 -81
13 -3 25 -5 28 -6 17 -7 84 1 96 11 20 16 17 45 -6 67 -20 18 -38 88 -20 77 5
-3 11 -1 15 5 4 6 10 8 15 5 5 -3 21 5 35 18 l27 23 -46 29 c-59 37 -62 65 -7
65 22 0 41 -3 43 -7 11 -25 69 -50 129 -57 78 -7 92 2 85 58 -2 20 -1 36 4 36
11 0 19 36 13 59 -4 16 -8 17 -18 8 -7 -7 -11 -15 -8 -19 9 -17 -38 -7 -56 11
-19 19 -37 59 -33 73 1 4 -4 5 -12 2 -8 -3 -16 4 -19 17 -11 43 10 50 67 22
19 -9 32 -21 29 -27 -3 -6 0 -5 8 2 20 18 33 15 18 -5 -12 -16 -12 -17 2 -6 9
7 19 10 23 6 4 -4 4 1 0 11 -5 13 -4 17 4 12 17 -11 26 38 13 77 -7 20 -38 57
-80 95 -74 66 -97 78 -158 86 -21 2 -69 10 -106 16 -37 7 -71 10 -74 6 -3 -3
-12 -1 -20 5 -7 6 -13 9 -13 5 0 -4 -14 1 -31 9 -81 43 -78 204 5 239 20 8 36
19 37 23 3 30 9 48 19 51 5 2 7 9 3 15 -4 7 1 6 10 -2 15 -12 17 -12 12 2 -8
18 11 32 21 16 5 -8 3 -9 -6 -4 -9 6 -11 4 -5 -4 9 -16 24 -2 30 27 2 12 7 28
10 35 4 6 0 4 -8 -6 -9 -10 -18 -14 -21 -8 -3 5 -1 11 5 13 6 2 12 15 12 30 2
20 5 24 15 15 24 -19 9 14 -18 42 l-26 26 26 -20 25 -20 -25 28 c-13 15 -30
25 -37 23 -16 -7 -27 11 -12 20 9 5 7 11 -6 21 -14 9 -15 13 -4 13 12 0 12 2
-1 10 -13 9 -13 10 0 10 13 0 13 1 0 10 -12 8 -12 10 -1 10 11 0 11 3 1 15
-10 12 -8 16 11 24 13 5 17 10 9 11 -13 0 -13 1 0 10 13 8 12 10 -4 10 -16 0
-17 2 -5 17 8 9 9 14 3 10 -7 -4 -15 0 -18 9 -5 12 -2 15 10 10 13 -5 14 -3 6
7 -8 10 -6 16 9 25 10 7 19 22 20 35 0 21 1 21 9 2 l9 -20 2 20 c1 11 2 30 2
42 1 12 5 19 10 16 6 -4 8 5 5 21 -3 14 -1 29 5 33 6 4 7 1 3 -8 -4 -8 0 -5 9
6 19 24 17 24 40 5 15 -12 17 -12 10 -1 -6 11 -5 12 6 5 14 -8 33 -14 55 -16
52 -6 213 -172 229 -237 3 -14 21 -64 40 -111 18 -47 36 -99 40 -117 4 -19 19
-41 39 -57 49 -37 71 -88 80 -186 3 -25 10 -59 17 -75 6 -17 13 -70 14 -120 2
-49 4 -133 5 -185 2 -80 4 -87 9 -47 4 27 12 52 19 56 8 5 12 84 13 281 l1
275 -36 110 c-20 61 -44 126 -52 145 -39 87 -68 139 -95 171 -16 19 -43 57
-59 84 -17 28 -47 73 -67 100 -43 59 -195 210 -249 248 -22 14 -44 35 -51 45
-6 11 -51 41 -100 67 -48 26 -120 67 -160 92 -40 24 -112 60 -160 79 -49 20
-108 44 -133 55 -30 13 -67 19 -110 18 -36 0 -119 2 -185 4 -66 3 -131 3 -145
0z m-46 -2967 c36 -24 32 -36 -13 -36 -16 0 -43 -42 -56 -87 -3 -12 -19 -38
-35 -58 -29 -36 -29 -36 -46 -16 -13 15 -21 18 -31 10 -22 -19 -26 14 -7 77 9
33 20 64 25 70 5 6 6 13 3 16 -3 3 9 10 25 16 17 6 31 9 31 7 0 -2 15 2 33 10
17 8 33 14 34 15 1 0 18 -11 37 -24z"/>
<path d="M11095 13213 c-3 -21 -13 -61 -22 -90 -11 -35 -14 -70 -10 -108 4
-44 2 -57 -9 -62 -8 -3 -21 -18 -30 -34 -14 -28 -14 -30 11 -39 15 -6 30 -10
35 -10 13 0 21 33 18 73 -1 19 3 41 9 49 10 13 35 105 48 179 7 41 -7 79 -30
79 -9 0 -16 -14 -20 -37z"/>
<path d="M10883 12525 c-12 -8 -27 -32 -34 -53 -6 -20 -18 -46 -25 -57 -18
-26 -18 -60 1 -75 11 -9 15 -31 14 -79 -1 -52 -3 -60 -9 -38 -5 15 -22 40 -39
56 -30 28 -32 28 -41 10 -6 -10 -20 -19 -31 -19 -13 0 -18 -4 -13 -12 5 -10 4
-10 -6 -1 -10 9 -19 9 -41 -3 -16 -8 -31 -14 -34 -14 -22 1 -25 -2 -19 -12 4
-7 -4 -2 -17 12 l-24 25 -3 -28 c-3 -28 52 -155 92 -212 26 -38 56 -102 56
-123 0 -9 12 -33 27 -54 35 -52 62 -48 84 11 16 43 17 44 28 22 9 -17 10 -46
4 -109 -4 -48 -7 -100 -5 -117 3 -31 38 -111 52 -120 5 -3 11 -19 15 -35 4
-17 10 -30 15 -30 4 0 13 -12 19 -27 6 -16 25 -53 43 -83 17 -30 41 -71 52
-91 66 -116 90 -150 109 -160 35 -19 1436 6 1490 26 11 5 17 18 17 41 0 20 18
70 45 123 25 49 45 99 45 110 0 25 -63 126 -101 161 -15 14 -56 40 -91 58 -35
18 -97 57 -138 87 -41 30 -94 66 -116 79 -81 49 -269 94 -411 98 l-92 3 -48
-47 c-63 -62 -95 -64 -154 -11 -71 64 -165 199 -209 301 -13 30 -170 192 -233
241 -29 21 -70 49 -92 61 -92 51 -131 74 -146 86 -12 11 -19 11 -36 -1z"/>
<path d="M13078 11324 c-3 -3 -55 -6 -116 -7 -122 -2 -143 -12 -161 -71 -5
-17 -15 -46 -23 -64 -11 -28 -11 -34 2 -43 15 -10 565 -3 603 7 16 5 16 7 -3
34 -42 59 -111 120 -136 120 -14 0 -41 7 -61 15 -35 15 -95 20 -105 9z"/>
<path d="M10573 7624 c-9 -24 3 -164 16 -177 6 -6 11 -18 11 -27 0 -10 9 -27
20 -40 11 -13 20 -29 20 -37 0 -7 7 -16 15 -19 8 -3 17 -14 20 -25 4 -10 11
-19 16 -19 5 0 17 -8 28 -17 37 -35 65 -53 83 -53 10 0 30 -7 43 -16 32 -21
74 -14 96 16 17 24 17 28 0 100 -33 133 -107 231 -223 294 -73 39 -134 48
-145 20z"/>
</g>
</svg>
