<?xml version="1.0" standalone="no"?>
<!DOCTYPE svg PUBLIC "-//W3C//DTD SVG 20010904//EN"
 "http://www.w3.org/TR/2001/REC-SVG-20010904/DTD/svg10.dtd">
<svg version="1.0" xmlns="http://www.w3.org/2000/svg"
 width="2000.000000pt" height="2000.000000pt" viewBox="0 0 2000.000000 2000.000000"
 preserveAspectRatio="xMidYMid meet">
<metadata>
Created by potrace 1.16, written by Peter Selinger 2001-2019
</metadata>
<g transform="translate(0.000000,2000.000000) scale(0.097656,-0.097656)"
fill="#000000" stroke="none">
<path d="M0 19935 l0 -545 9151 0 9151 0 30 25 c44 37 98 18 98 -35 0 -53 -75
-83 -102 -40 -13 20 -24 20 -9170 20 l-9158 0 0 -9680 0 -9680 10240 0 10240
0 0 500 0 500 -9158 0 c-9146 0 -9157 0 -9170 -20 -25 -40 -102 -14 -102 34 0
9 5 26 10 37 15 27 75 26 92 -1 13 -20 24 -20 9170 -20 l9158 0 0 9725 0 9725
-10240 0 -10240 0 0 -545z m18100 -905 c0 -6 -34 -10 -81 -10 -61 0 -80 -3
-77 -12 2 -7 67 -210 143 -450 l139 -438 78 0 c45 0 78 -4 78 -10 0 -7 -1140
-10 -3400 -10 -2260 0 -3400 3 -3400 10 0 6 29 10 66 10 49 0 65 3 62 13 -3 6
-67 209 -143 450 l-139 437 -68 0 c-39 0 -68 4 -68 10 0 7 1142 10 3405 10
2263 0 3405 -3 3405 -10z m-14372 -309 c585 -114 1033 -567 1137 -1154 14 -78
16 -135 13 -290 -5 -174 -8 -203 -36 -307 -94 -353 -293 -629 -600 -831 -252
-165 -513 -236 -827 -225 -231 7 -404 53 -604 157 -607 317 -900 1028 -694
1683 157 500 589 875 1118 971 113 21 376 19 493 -4z m6665 -1112 c53 -14 79
-58 74 -122 -6 -70 -38 -99 -114 -105 -72 -5 -107 8 -133 50 -39 64 -19 140
44 169 47 21 76 23 129 8z m227 -79 c0 -89 0 -90 25 -90 21 0 25 -5 25 -30 l0
-30 -85 0 -85 0 0 30 c0 25 4 30 25 30 23 0 25 3 25 50 0 47 -1 50 -19 40 -29
-15 -31 -13 -31 25 0 23 5 35 14 35 7 0 19 7 26 15 7 8 28 15 46 15 l34 0 0
-90z m265 76 c45 -19 68 -57 67 -111 0 -54 -14 -81 -52 -100 -35 -18 -119 -20
-155 -3 -55 25 -75 130 -34 182 33 43 113 57 174 32z m287 4 c50 -14 78 -52
78 -106 0 -86 -41 -124 -132 -124 -72 0 -113 26 -128 80 -30 110 60 183 182
150z m301 -1 c53 -14 79 -58 74 -122 -6 -70 -38 -99 -114 -105 -72 -5 -107 8
-133 50 -39 64 -19 140 44 169 47 21 76 23 129 8z m302 -3 c45 -19 68 -57 67
-111 0 -54 -14 -81 -52 -100 -35 -18 -119 -20 -155 -3 -55 25 -75 130 -34 182
33 43 113 57 174 32z m225 -76 c0 -89 0 -90 25 -90 21 0 25 -5 25 -30 l0 -30
-85 0 -85 0 0 30 c0 25 4 30 25 30 23 0 25 3 25 50 0 47 -11 63 -25 40 -13
-21 -25 -9 -25 25 0 23 5 35 14 35 7 0 19 7 26 15 7 8 28 15 46 15 l34 0 0
-90z m190 0 c0 -89 0 -90 25 -90 21 0 25 -5 25 -30 l0 -30 -85 0 -85 0 0 30
c0 25 4 30 25 30 23 0 25 3 25 50 0 47 -11 63 -25 40 -13 -21 -25 -9 -25 25 0
23 5 35 14 35 7 0 19 7 26 15 7 8 28 15 46 15 l34 0 0 -90z m329 74 c68 -27
90 -113 46 -181 -22 -33 -60 -45 -129 -41 -51 4 -63 9 -87 36 -35 40 -39 100
-9 149 30 50 107 66 179 37z m221 -74 c0 -89 0 -90 25 -90 21 0 25 -5 25 -30
l0 -30 -85 0 -85 0 0 30 c0 25 4 30 25 30 23 0 25 3 25 50 0 47 -1 50 -19 40
-29 -15 -31 -13 -31 25 0 23 5 35 14 35 7 0 19 7 26 15 7 8 28 15 46 15 l34 0
0 -90z m190 0 c0 -89 0 -90 25 -90 21 0 25 -5 25 -30 l0 -30 -85 0 -85 0 0 30
c0 25 4 30 25 30 23 0 25 3 25 50 0 47 -1 50 -19 40 -29 -15 -31 -13 -31 25 0
23 5 35 14 35 7 0 19 7 26 15 7 8 28 15 46 15 l34 0 0 -90z m190 0 c0 -89 0
-90 25 -90 21 0 25 -5 25 -30 l0 -30 -85 0 -85 0 0 30 c0 25 4 30 25 30 23 0
25 3 25 50 0 47 -1 50 -19 40 -29 -15 -31 -13 -31 25 0 23 5 35 14 35 7 0 19
7 26 15 7 8 28 15 46 15 l34 0 0 -90z m265 76 c45 -19 68 -57 67 -111 0 -54
-14 -81 -52 -100 -35 -18 -119 -20 -155 -3 -55 25 -75 130 -34 182 33 43 113
57 174 32z m287 4 c50 -14 78 -52 78 -106 0 -86 -41 -124 -132 -124 -72 0
-113 26 -128 80 -30 110 60 183 182 150z m238 -80 c0 -83 1 -90 20 -90 16 0
20 -7 20 -30 l0 -30 -85 0 -85 0 0 30 c0 27 3 30 30 30 29 0 30 1 30 50 0 51
-6 60 -28 38 -14 -14 -18 -11 -26 27 -5 26 -2 32 27 46 17 9 47 17 65 18 l32
1 0 -90z m253 79 c53 -14 79 -58 74 -122 -6 -70 -38 -99 -114 -105 -72 -5
-107 8 -133 50 -39 64 -19 140 44 169 47 21 76 23 129 8z m360 0 c53 -14 79
-58 74 -122 -6 -70 -38 -99 -114 -105 -72 -5 -107 8 -133 50 -39 64 -19 140
44 169 47 21 76 23 129 8z m237 -79 c0 -83 1 -90 20 -90 16 0 20 -7 20 -30 l0
-30 -85 0 -85 0 0 30 c0 25 4 30 25 30 23 0 25 3 25 50 0 46 -2 50 -19 41 -23
-13 -31 -5 -31 28 0 30 45 57 98 60 l32 1 0 -90z m190 0 c0 -83 1 -90 20 -90
16 0 20 -7 20 -30 l0 -30 -85 0 -85 0 0 30 c0 25 4 30 25 30 23 0 25 3 25 50
0 46 -2 50 -19 41 -23 -13 -31 -5 -31 28 0 30 45 57 98 60 l32 1 0 -90z m190
0 c0 -83 1 -90 20 -90 16 0 20 -7 20 -30 l0 -30 -85 0 -85 0 0 30 c0 25 4 30
25 30 23 0 25 3 25 50 0 46 -2 50 -19 41 -23 -13 -31 -5 -31 28 0 30 45 57 98
60 l32 1 0 -90z m259 74 c68 -27 90 -113 46 -181 -22 -33 -60 -45 -129 -41
-51 4 -63 9 -87 36 -35 40 -39 100 -9 149 30 50 107 66 179 37z m221 -74 c0
-89 0 -90 25 -90 21 0 25 -5 25 -30 l0 -30 -85 0 -85 0 0 30 c0 25 4 30 25 30
23 0 25 3 25 50 0 47 -1 50 -19 40 -29 -15 -31 -13 -31 25 0 23 5 35 14 35 7
0 19 7 26 15 7 8 28 15 46 15 l34 0 0 -90z m265 76 c45 -19 68 -57 67 -111 0
-54 -14 -81 -52 -100 -35 -18 -119 -20 -155 -3 -55 25 -75 130 -34 182 33 43
113 57 174 32z m225 -76 c0 -89 0 -90 25 -90 21 0 25 -5 25 -30 l0 -30 -85 0
-85 0 0 30 c0 25 4 30 25 30 23 0 25 3 25 50 0 47 -11 63 -25 40 -13 -21 -25
-9 -25 25 0 23 5 35 14 35 7 0 19 7 26 15 7 8 28 15 46 15 l34 0 0 -90z m329
74 c68 -27 90 -113 46 -181 -22 -33 -60 -45 -129 -41 -51 4 -63 9 -87 36 -35
40 -39 100 -9 149 30 50 107 66 179 37z m221 -74 c0 -89 0 -90 25 -90 21 0 25
-5 25 -30 l0 -30 -85 0 -85 0 0 30 c0 25 4 30 25 30 23 0 25 3 25 50 0 47 -1
50 -19 40 -29 -15 -31 -13 -31 25 0 23 5 35 14 35 7 0 19 7 26 15 7 8 28 15
46 15 l34 0 0 -90z m190 0 c0 -89 0 -90 25 -90 21 0 25 -5 25 -30 l0 -30 -85
0 -85 0 0 30 c0 25 4 30 25 30 23 0 25 3 25 50 0 47 -1 50 -19 40 -29 -15 -31
-13 -31 25 0 23 5 35 14 35 7 0 19 7 26 15 7 8 28 15 46 15 l34 0 0 -90z m190
0 c0 -89 0 -90 25 -90 21 0 25 -5 25 -30 l0 -30 -85 0 -85 0 0 30 c0 25 4 30
25 30 23 0 25 3 25 50 0 47 -1 50 -19 40 -29 -15 -31 -13 -31 25 0 23 5 35 14
35 7 0 19 7 26 15 7 8 28 15 46 15 l34 0 0 -90z m190 0 c0 -89 0 -90 25 -90
21 0 25 -5 25 -30 l0 -30 -85 0 -85 0 0 30 c0 25 4 30 25 30 23 0 25 3 25 50
0 47 -1 50 -19 40 -29 -15 -31 -13 -31 25 0 23 5 35 14 35 7 0 19 7 26 15 7 8
28 15 46 15 l34 0 0 -90z m265 76 c45 -19 68 -57 67 -111 0 -54 -14 -81 -52
-100 -35 -18 -119 -20 -155 -3 -55 25 -75 130 -34 182 33 43 113 57 174 32z
m225 -76 c0 -89 0 -90 25 -90 21 0 25 -5 25 -30 l0 -30 -85 0 -85 0 0 30 c0
25 4 30 25 30 23 0 25 3 25 50 0 47 -11 63 -25 40 -13 -21 -25 -9 -25 25 0 23
5 35 14 35 7 0 19 7 26 15 7 8 28 15 46 15 l34 0 0 -90z m252 80 c50 -14 78
-52 78 -106 0 -86 -41 -124 -132 -124 -72 0 -113 26 -128 80 -30 110 60 183
182 150z m710 -727 l238 -238 0 -490 0 -490 -245 245 -245 245 0 482 c0 266 3
483 7 483 5 0 115 -107 245 -237z m-7797 33 c378 -42 700 -99 1022 -182 1779
-457 3300 -1638 4199 -3260 414 -748 684 -1588 784 -2440 61 -531 65 -1043 9
-1539 -244 -2187 -1554 -4113 -3517 -5170 -703 -378 -1520 -636 -2322 -734
-309 -38 -450 -46 -820 -46 -385 0 -538 9 -867 51 -1486 188 -2873 882 -3928
1965 -242 249 -410 446 -600 704 -729 991 -1151 2091 -1281 3335 -19 185 -32
745 -22 990 29 756 229 1608 548 2330 23 52 48 110 56 128 l15 33 -31 -22 -30
-23 -28 21 c-34 26 -39 56 -12 83 31 31 71 23 91 -16 l15 -32 48 97 c467 945
1157 1778 2001 2412 975 733 2122 1184 3330 1309 250 26 319 28 745 25 330 -2
484 -7 595 -19z m7798 -1510 l237 -244 0 -489 0 -488 -245 245 -245 245 0 487
c0 269 3 488 8 488 4 0 114 -110 245 -244z m237 -2201 l0 -490 -245 245 -245
245 0 490 0 490 245 -245 245 -245 0 -490z m-238 -742 l238 -238 0 -490 0
-490 -245 245 -245 245 0 482 c0 266 3 483 7 483 5 0 115 -107 245 -237z m183
-3205 c88 -69 48 -178 -65 -178 -125 0 -137 133 -17 185 43 19 50 19 82 -7z
m-873 -17 c78 -70 2 -188 -96 -147 -63 26 -66 118 -3 156 43 27 61 25 99 -9z
m419 13 c37 -19 63 -73 50 -106 -22 -58 -87 -81 -138 -49 -56 35 -53 124 6
156 34 18 46 18 82 -1z m-1226 -8 c80 -34 67 -135 -21 -152 -93 -17 -149 73
-85 137 33 32 56 36 106 15z m406 -5 c35 -28 33 -95 -4 -127 -62 -54 -156 -12
-144 64 12 71 94 107 148 63z m1229 -1656 l0 -245 -89 0 -89 0 5 75 6 75 -163
0 -163 0 28 -22 c28 -22 68 -96 59 -110 -3 -4 -26 -8 -52 -9 -26 0 -68 -4 -95
-8 -46 -8 -48 -7 -53 18 -14 63 -27 93 -55 120 -28 29 -29 32 -29 130 l0 101
261 0 262 0 -6 60 -7 60 90 0 90 0 0 -245z m-16780 -1010 l0 -490 -240 240
-240 240 0 490 0 490 240 -240 240 -240 0 -490z m16515 674 c107 -20 187 -75
231 -160 41 -80 54 -235 30 -350 -33 -154 -115 -233 -269 -259 -176 -31 -329
46 -388 196 -20 51 -23 76 -23 189 0 113 3 138 23 189 61 154 213 229 396 195z
m-173 -889 c5 0 8 -16 8 -35 0 -33 2 -35 52 -50 72 -21 78 -20 78 15 0 17 3
30 8 30 4 0 45 -11 92 -24 85 -23 85 -23 88 -58 3 -34 5 -35 65 -49 l62 -14 3
-107 3 -106 -53 14 c-78 20 -78 20 -78 -36 0 -54 -7 -49 103 -76 l27 -6 0
-104 c0 -57 -3 -104 -7 -104 -5 0 -33 7 -63 15 -30 8 -56 15 -57 15 -2 0 -3
-18 -3 -41 0 -46 5 -46 -123 -10 l-62 18 -3 41 c-3 39 -6 42 -40 51 -99 26
-92 27 -92 -13 0 -43 -4 -44 -111 -14 l-79 21 0 39 c0 22 -5 40 -12 43 -7 2
-32 9 -55 15 l-43 11 0 105 c0 93 2 105 16 100 9 -3 33 -9 55 -12 l39 -7 0 51
0 51 -55 12 -55 12 0 108 0 107 53 -14 c28 -7 53 -14 55 -14 1 0 2 15 2 34 l0
34 87 -24 c49 -13 91 -24 95 -24z m-16342 -1255 l0 -490 -240 240 -240 240 0
490 0 490 240 -240 240 -240 0 -490z m0 -1475 l0 -495 -240 245 -239 245 0
490 -1 490 240 -240 240 -240 0 -495z m15207 931 c597 -131 1044 -591 1159
-1191 24 -128 25 -388 1 -520 -74 -401 -303 -749 -644 -977 -250 -167 -505
-243 -816 -243 -219 0 -361 26 -552 101 -795 310 -1161 1275 -775 2041 74 147
148 247 280 378 248 249 512 380 875 434 17 2 109 3 205 1 128 -3 199 -9 267
-24z m-15207 -2406 l0 -490 -240 240 -240 240 0 490 0 490 240 -240 240 -240
0 -490z m570 284 c0 -232 -2 -269 -15 -269 -13 0 -15 36 -15 268 0 148 3 272
6 275 20 19 24 -29 24 -274z m100 6 c0 -268 0 -275 -20 -275 -20 0 -20 7 -20
275 0 268 0 275 20 275 20 0 20 -7 20 -275z m130 0 l0 -275 -35 0 -35 0 0 275
0 275 35 0 35 0 0 -275z m170 0 l0 -275 -50 0 -50 0 0 275 0 275 50 0 50 0 0
-275z m68 -3 c2 -267 2 -272 -18 -272 -20 0 -20 6 -20 276 0 257 1 275 18 272
16 -3 17 -25 20 -276z m162 3 c0 -238 -2 -275 -15 -275 -13 0 -15 37 -15 275
0 238 2 275 15 275 13 0 15 -37 15 -275z m100 0 l0 -275 -30 0 -30 0 0 275 0
275 30 0 30 0 0 -275z m108 -3 c2 -267 2 -272 -18 -272 -20 0 -20 6 -20 276 0
257 1 275 18 272 16 -3 17 -25 20 -276z m100 0 c2 -267 2 -272 -18 -272 -20 0
-20 6 -20 276 0 257 1 275 18 272 16 -3 17 -25 20 -276z m100 1 l2 -273 -35 0
-35 0 0 276 0 275 33 -3 32 -3 3 -272z m202 2 l0 -275 -35 0 -35 0 0 275 0
275 35 0 35 0 0 -275z m168 -3 c2 -267 2 -272 -18 -272 -20 0 -20 6 -20 276 0
257 1 275 18 272 16 -3 17 -25 20 -276z m62 3 c0 -238 -2 -275 -15 -275 -13 0
-15 37 -15 275 0 238 2 275 15 275 13 0 15 -37 15 -275z m200 0 l0 -275 -65 0
-65 0 0 275 0 275 65 0 65 0 0 -275z m70 0 c0 -268 0 -275 -20 -275 -20 0 -20
7 -20 268 0 148 3 272 7 275 3 4 12 7 20 7 10 0 13 -52 13 -275z m100 0 c0
-268 0 -275 -20 -275 -20 0 -20 7 -20 268 0 148 3 272 7 275 3 4 12 7 20 7 10
0 13 -52 13 -275z m100 0 c0 -238 -2 -275 -15 -275 -13 0 -15 37 -15 275 0
238 2 275 15 275 13 0 15 -37 15 -275z m100 0 c0 -238 -2 -275 -15 -275 -13 0
-15 37 -15 275 0 238 2 275 15 275 13 0 15 -37 15 -275z m100 0 l0 -275 -35 0
-35 0 0 268 c0 148 3 272 7 275 3 4 19 7 35 7 l28 0 0 -275z m170 0 c0 -268 0
-275 -20 -275 -20 0 -20 7 -20 268 0 148 3 272 7 275 3 4 12 7 20 7 10 0 13
-52 13 -275z m130 0 l0 -275 -35 0 -35 0 0 268 c0 148 3 272 7 275 3 4 19 7
35 7 l28 0 0 -275z m170 0 l0 -275 -50 0 -50 0 0 275 0 275 50 0 50 0 0 -275z
m70 0 c0 -268 0 -275 -20 -275 -20 0 -20 7 -20 268 0 148 3 272 7 275 3 4 12
7 20 7 10 0 13 -53 13 -275z m168 -3 c2 -267 2 -272 -18 -272 -20 0 -20 6 -20
276 0 257 1 275 18 272 16 -3 17 -25 20 -276z m100 1 l2 -273 -35 0 -35 0 0
276 0 275 33 -3 32 -3 3 -272z m100 -1 c2 -267 2 -272 -18 -272 -20 0 -20 6
-20 276 0 257 1 275 18 272 16 -3 17 -25 20 -276z m232 3 l0 -275 -65 0 -65 0
0 275 0 275 65 0 65 0 0 -275z m70 0 c0 -268 0 -275 -20 -275 -20 0 -20 7 -20
268 0 148 3 272 7 275 3 4 12 7 20 7 10 0 13 -53 13 -275z m168 -2 l2 -273
-70 0 -70 0 0 275 0 276 68 -3 67 -3 3 -272z m132 2 l0 -275 -50 0 -50 0 0
275 0 275 50 0 50 0 0 -275z m70 0 c0 -268 0 -275 -20 -275 -20 0 -20 7 -20
275 0 268 0 275 20 275 20 0 20 -7 20 -275z m60 0 c0 -238 -2 -275 -15 -275
-13 0 -15 37 -15 275 0 238 2 275 15 275 13 0 15 -37 15 -275z m140 0 l0 -275
-50 0 -50 0 0 275 0 275 50 0 50 0 0 -275z m130 0 l0 -275 -35 0 -35 0 0 268
c0 148 3 272 7 275 3 4 19 7 35 7 l28 0 0 -275z m100 0 c0 -238 -2 -275 -15
-275 -13 0 -15 37 -15 275 0 238 2 275 15 275 13 0 15 -37 15 -275z m270 0 c0
-238 -2 -275 -15 -275 -13 0 -15 37 -15 275 0 238 2 275 15 275 13 0 15 -37
15 -275z m138 -2 l2 -273 -35 0 -35 0 0 276 0 275 33 -3 32 -3 3 -272z m162 2
l0 -275 -50 0 -50 0 0 275 0 275 50 0 50 0 0 -275z m70 0 c0 -238 -2 -275 -15
-275 -13 0 -15 37 -15 275 0 238 2 275 15 275 13 0 15 -37 15 -275z m170 0 c0
-268 0 -275 -20 -275 -20 0 -20 7 -20 268 0 148 3 272 7 275 3 4 12 7 20 7 10
0 13 -53 13 -275z m100 0 l0 -275 -35 0 -35 0 0 275 0 275 35 0 35 0 0 -275z
m100 0 c0 -268 0 -275 -20 -275 -20 0 -20 7 -20 268 0 148 3 272 7 275 3 4 12
7 20 7 10 0 13 -53 13 -275z m100 0 c0 -268 0 -275 -20 -275 -20 0 -20 7 -20
268 0 148 3 272 7 275 3 4 12 7 20 7 10 0 13 -53 13 -275z m100 0 l0 -275 -35
0 -35 0 0 275 0 275 35 0 35 0 0 -275z m200 0 l0 -275 -35 0 -35 0 0 268 c0
148 3 272 7 275 3 4 19 7 35 7 l28 0 0 -275z m170 0 c0 -268 0 -275 -20 -275
-20 0 -20 7 -20 268 0 148 3 272 7 275 3 4 12 7 20 7 10 0 13 -53 13 -275z
m68 -3 c2 -267 2 -272 -18 -272 -20 0 -20 6 -20 276 0 257 1 275 18 272 16 -3
17 -25 20 -276z m202 3 l0 -275 -70 0 -70 0 0 275 0 275 70 0 70 0 0 -275z
m68 -3 c2 -267 2 -272 -18 -272 -20 0 -20 6 -20 276 0 257 1 275 18 272 16 -3
17 -25 20 -276z m100 0 c2 -267 2 -272 -18 -272 -20 0 -20 6 -20 276 0 257 1
275 18 272 16 -3 17 -25 20 -276z m100 0 c2 -267 2 -272 -18 -272 -20 0 -20 6
-20 276 0 257 1 275 18 272 16 -3 17 -25 20 -276z m100 0 c2 -267 2 -272 -18
-272 -20 0 -20 6 -20 276 0 257 1 275 18 272 16 -3 17 -25 20 -276z m100 1 l2
-273 -35 0 -35 0 0 276 0 275 33 -3 32 -3 3 -272z m162 2 c0 -238 -2 -275 -15
-275 -13 0 -15 37 -15 275 0 238 2 275 15 275 13 0 15 -37 15 -275z m140 0 l0
-275 -35 0 -35 0 0 275 0 275 35 0 35 0 0 -275z m168 -2 l2 -273 -55 0 -55 0
0 268 c0 148 3 272 7 276 4 4 28 6 53 4 l45 -3 3 -272z m62 2 c0 -238 -2 -275
-15 -275 -13 0 -15 37 -15 275 0 238 2 275 15 275 13 0 15 -37 15 -275z m170
0 c0 -238 -2 -275 -15 -275 -13 0 -15 37 -15 275 0 238 2 275 15 275 13 0 15
-37 15 -275z m100 0 l0 -275 -35 0 -35 0 0 275 0 275 35 0 35 0 0 -275z m100
0 c0 -238 -2 -275 -15 -275 -13 0 -15 37 -15 275 0 238 2 275 15 275 13 0 15
-37 15 -275z m238 -2 l2 -273 -70 0 -70 0 0 275 0 276 68 -3 67 -3 3 -272z
m62 2 c0 -238 -2 -275 -15 -275 -13 0 -15 37 -15 275 0 238 2 275 15 275 13 0
15 -37 15 -275z m170 0 l0 -275 -70 0 -70 0 0 268 c0 148 3 272 7 275 3 4 35
7 70 7 l63 0 0 -275z m138 -2 l2 -273 -55 0 -55 0 0 276 0 275 53 -3 52 -3 3
-272z m62 2 c0 -238 -2 -275 -15 -275 -13 0 -15 37 -15 275 0 238 2 275 15
275 13 0 15 -37 15 -275z m70 0 c0 -268 0 -275 -20 -275 -20 0 -20 7 -20 268
0 148 3 272 7 275 3 4 12 7 20 7 10 0 13 -52 13 -275z m130 0 l0 -275 -50 0
-50 0 0 275 0 275 50 0 50 0 0 -275z m140 0 l0 -275 -35 0 -35 0 0 275 0 275
35 0 35 0 0 -275z m98 -3 c2 -267 2 -272 -18 -272 -20 0 -20 6 -20 276 0 257
1 275 18 272 16 -3 17 -25 20 -276z m-8298 -481 c54 -38 44 -148 -15 -171 -38
-15 -102 -12 -135 5 -50 26 -59 128 -15 165 38 31 121 31 165 1z m170 -51 c0
-73 2 -80 20 -80 15 0 20 -7 20 -25 0 -24 -2 -25 -75 -25 -73 0 -75 1 -75 25
0 20 5 25 25 25 23 0 25 4 25 45 0 42 -2 45 -19 36 -22 -12 -31 -5 -31 23 0
25 43 54 83 55 l27 1 0 -80z m250 51 c54 -38 44 -148 -15 -171 -38 -15 -102
-12 -135 5 -50 26 -59 128 -15 165 38 31 121 31 165 1z m221 19 c11 0 31 -11
44 -25 20 -19 25 -34 25 -72 -1 -51 -12 -73 -47 -91 -26 -15 -92 -16 -127 -2
-56 21 -72 124 -26 165 21 19 77 35 98 29 8 -2 22 -4 33 -4z m209 -70 c0 -73
2 -80 20 -80 15 0 20 -7 20 -25 0 -24 -2 -25 -75 -25 -73 0 -75 1 -75 25 0 20
5 25 25 25 23 0 25 4 25 45 0 42 -2 45 -19 36 -22 -12 -31 -5 -31 23 0 25 43
54 83 55 l27 1 0 -80z m168 -2 c2 -60 6 -78 17 -78 9 0 15 -10 15 -25 0 -24
-2 -25 -70 -25 -68 0 -70 1 -70 25 0 18 5 25 20 25 17 0 20 7 20 45 0 43 -1
45 -20 35 -18 -10 -20 -8 -20 17 0 33 40 63 80 60 24 -2 25 -5 28 -79z m261
36 c19 -23 22 -35 18 -73 -7 -65 -40 -91 -113 -91 -48 0 -60 4 -85 29 -23 24
-29 38 -29 74 0 57 24 87 76 96 55 10 105 -3 133 -35z m241 17 c54 -38 44
-148 -15 -171 -38 -15 -102 -12 -135 5 -50 26 -59 128 -15 165 38 31 121 31
165 1z m329 -17 c19 -23 22 -35 18 -73 -7 -65 -40 -91 -113 -91 -48 0 -60 4
-85 29 -23 24 -29 38 -29 74 0 57 24 87 76 96 55 10 105 -3 133 -35z m159 -36
c2 -60 6 -78 17 -78 9 0 15 -10 15 -25 0 -24 -2 -25 -70 -25 -68 0 -70 1 -70
25 0 18 5 25 20 25 17 0 20 7 20 45 0 43 -1 45 -20 35 -18 -10 -20 -8 -20 17
0 33 40 63 80 60 24 -2 25 -5 28 -79z m162 2 c0 -73 2 -80 20 -80 15 0 20 -7
20 -25 0 -24 -2 -25 -75 -25 -73 0 -75 1 -75 25 0 20 5 25 25 25 23 0 25 4 25
45 0 42 -2 45 -19 36 -22 -12 -31 -5 -31 23 0 25 43 54 83 55 l27 1 0 -80z
m168 -2 c2 -60 6 -78 17 -78 9 0 15 -10 15 -25 0 -24 -2 -25 -70 -25 -68 0
-70 1 -70 25 0 18 5 25 20 25 17 0 20 7 20 45 0 43 -1 45 -20 35 -18 -10 -20
-8 -20 17 0 33 40 63 80 60 24 -2 25 -5 28 -79z m261 36 c19 -23 22 -35 18
-73 -7 -65 -40 -91 -113 -91 -48 0 -60 4 -85 29 -23 24 -29 38 -29 74 0 57 24
87 76 96 55 10 105 -3 133 -35z m159 -36 c2 -60 6 -78 17 -78 9 0 15 -10 15
-25 0 -24 -2 -25 -70 -25 -68 0 -70 1 -70 25 0 18 5 25 20 25 17 0 20 7 20 45
0 43 -1 45 -20 35 -18 -10 -20 -8 -20 17 0 33 40 63 80 60 24 -2 25 -5 28 -79z
m257 45 c37 -38 35 -104 -4 -144 -26 -25 -37 -29 -86 -29 -49 0 -60 4 -86 29
-57 57 -28 153 51 170 53 10 97 1 125 -26z m163 -45 c3 -70 5 -78 22 -78 15 0
20 -7 20 -25 0 -24 -2 -25 -75 -25 -73 0 -75 1 -75 25 0 18 5 25 20 25 17 0
20 7 20 47 0 37 -3 44 -12 35 -19 -19 -28 -14 -28 16 0 32 41 62 80 59 24 -2
25 -5 28 -79z m321 36 c19 -23 22 -35 18 -73 -7 -65 -40 -91 -113 -91 -48 0
-60 4 -85 29 -23 24 -29 38 -29 74 0 57 24 87 76 96 55 10 105 -3 133 -35z
m159 -36 c2 -60 6 -78 17 -78 9 0 15 -10 15 -25 0 -24 -2 -25 -70 -25 -68 0
-70 1 -70 25 0 18 5 25 20 25 17 0 20 7 20 45 0 43 -1 45 -20 35 -18 -10 -20
-8 -20 17 0 33 40 63 80 60 24 -2 25 -5 28 -79z m162 2 c0 -73 2 -80 20 -80
15 0 20 -7 20 -25 0 -24 -2 -25 -75 -25 -73 0 -75 1 -75 25 0 20 5 25 25 25
23 0 25 4 25 45 0 42 -2 45 -19 36 -22 -12 -31 -5 -31 23 0 25 43 54 83 55
l27 1 0 -80z m211 70 c11 0 31 -11 44 -25 20 -19 25 -34 25 -72 -1 -51 -12
-73 -47 -91 -26 -15 -92 -16 -127 -2 -56 21 -72 124 -26 165 21 19 77 35 98
29 8 -2 22 -4 33 -4z m304 -27 c37 -38 35 -104 -4 -144 -26 -25 -37 -29 -86
-29 -49 0 -60 4 -86 29 -57 57 -28 153 51 170 53 10 97 1 125 -26z m264 -9
c19 -23 22 -35 18 -73 -7 -65 -40 -91 -113 -91 -48 0 -60 4 -85 29 -23 24 -29
38 -29 74 0 57 24 87 76 96 55 10 105 -3 133 -35z m159 -36 c2 -60 6 -78 17
-78 9 0 15 -10 15 -25 0 -24 -2 -25 -70 -25 -68 0 -70 1 -70 25 0 18 5 25 20
25 17 0 20 7 20 45 0 43 -1 45 -20 35 -18 -10 -20 -8 -20 17 0 33 40 63 80 60
24 -2 25 -5 28 -79z m160 0 c3 -70 5 -78 22 -78 15 0 20 -7 20 -25 0 -24 -2
-25 -75 -25 -73 0 -75 1 -75 25 0 18 5 25 20 25 17 0 20 7 20 47 0 37 -3 44
-12 35 -19 -19 -28 -14 -28 16 0 32 41 62 80 59 24 -2 25 -5 28 -79z m317 45
c37 -38 35 -104 -4 -144 -26 -25 -37 -29 -86 -29 -49 0 -60 4 -86 29 -57 57
-28 153 51 170 53 10 97 1 125 -26z m163 -45 c2 -60 6 -78 17 -78 9 0 15 -10
15 -25 0 -24 -2 -25 -70 -25 -68 0 -70 1 -70 25 0 18 5 25 20 25 17 0 20 7 20
45 0 43 -1 45 -20 35 -18 -10 -20 -8 -20 17 0 33 40 63 80 60 24 -2 25 -5 28
-79z m162 2 c0 -73 2 -80 20 -80 15 0 20 -7 20 -25 0 -24 -2 -25 -75 -25 -73
0 -75 1 -75 25 0 20 5 25 25 25 23 0 25 4 25 45 0 42 -2 45 -19 36 -22 -12
-31 -5 -31 23 0 25 43 54 83 55 l27 1 0 -80z m250 51 c54 -38 44 -148 -15
-171 -38 -15 -102 -12 -135 5 -50 26 -59 128 -15 165 38 31 121 31 165 1z
m221 19 c11 0 31 -11 44 -25 20 -19 25 -34 25 -72 -1 -51 -12 -73 -47 -91 -26
-15 -92 -16 -127 -2 -56 21 -72 124 -26 165 21 19 77 35 98 29 8 -2 22 -4 33
-4z m308 -36 c19 -23 22 -35 18 -73 -7 -65 -40 -91 -113 -91 -48 0 -60 4 -85
29 -23 24 -29 38 -29 74 0 57 24 87 76 96 55 10 105 -3 133 -35z m241 17 c54
-38 44 -148 -15 -171 -38 -15 -102 -12 -135 5 -50 26 -59 128 -15 165 38 31
121 31 165 1z m170 -51 c0 -73 2 -80 20 -80 15 0 20 -7 20 -25 0 -24 -2 -25
-75 -25 -73 0 -75 1 -75 25 0 20 5 25 25 25 23 0 25 4 25 45 0 43 -1 45 -20
35 -16 -8 -20 -8 -20 4 0 8 -2 20 -5 28 -5 15 49 46 83 47 21 1 22 -2 22 -79z
m271 70 c11 0 31 -11 44 -25 20 -19 25 -34 25 -72 -1 -51 -12 -73 -47 -91 -26
-15 -92 -16 -127 -2 -56 21 -72 124 -26 165 21 19 77 35 98 29 8 -2 22 -4 33
-4z m209 -70 c0 -73 2 -80 20 -80 15 0 20 -7 20 -25 0 -24 -2 -25 -75 -25 -73
0 -75 1 -75 25 0 20 5 25 25 25 23 0 25 4 25 45 0 42 -2 45 -19 36 -22 -12
-31 -5 -31 23 0 25 43 54 83 55 l27 1 0 -80z m168 -2 c2 -60 6 -78 17 -78 9 0
15 -10 15 -25 0 -24 -2 -25 -70 -25 -68 0 -70 1 -70 25 0 18 5 25 20 25 17 0
20 7 20 45 0 43 -1 45 -20 35 -18 -10 -20 -8 -20 17 0 33 40 63 80 60 24 -2
25 -5 28 -79z m162 2 c0 -73 2 -80 20 -80 15 0 20 -7 20 -25 0 -24 -2 -25 -75
-25 -73 0 -75 1 -75 25 0 20 5 25 25 25 23 0 25 4 25 45 0 42 -2 45 -19 36
-22 -12 -31 -5 -31 23 0 25 43 54 83 55 l27 1 0 -80z m211 70 c11 0 31 -11 44
-25 20 -19 25 -34 25 -72 -1 -51 -12 -73 -47 -91 -26 -15 -92 -16 -127 -2 -56
21 -72 124 -26 165 21 19 77 35 98 29 8 -2 22 -4 33 -4z m304 -27 c37 -38 35
-104 -4 -144 -26 -25 -37 -29 -86 -29 -49 0 -60 4 -86 29 -57 57 -28 153 51
170 53 10 97 1 125 -26z m163 -45 c3 -70 5 -78 22 -78 15 0 20 -7 20 -25 0
-24 -2 -25 -75 -25 -73 0 -75 1 -75 25 0 18 5 25 20 25 17 0 20 7 20 47 0 37
-3 44 -12 35 -19 -19 -28 -14 -28 16 0 32 41 62 80 59 24 -2 25 -5 28 -79z
m162 2 c0 -73 2 -80 20 -80 15 0 20 -7 20 -25 0 -24 -2 -25 -75 -25 -73 0 -75
1 -75 25 0 20 5 25 25 25 23 0 25 4 25 45 0 43 -1 45 -20 35 -16 -8 -20 -8
-20 4 0 8 -2 20 -5 28 -5 15 49 46 83 47 21 1 22 -2 22 -79z"/>
<path d="M11460 19011 c0 -7 47 -156 226 -718 l55 -173 201 0 c186 0 200 1
196 18 -3 9 -67 212 -143 450 l-138 432 -199 0 c-109 0 -198 -4 -198 -9z"/>
<path d="M11890 19013 c0 -4 54 -178 121 -388 67 -209 130 -408 140 -442 l20
-63 199 0 c121 0 200 4 200 10 0 5 -38 127 -84 272 -46 145 -109 343 -141 441
l-56 177 -200 0 c-109 0 -199 -3 -199 -7z"/>
<path d="M12322 19008 c3 -7 67 -210 143 -450 l139 -438 198 0 c155 0 198 3
198 13 0 7 -62 208 -138 447 l-139 435 -203 3 c-160 2 -201 0 -198 -10z"/>
<path d="M12750 19018 c0 -2 65 -203 143 -448 l143 -445 203 -3 c161 -2 202 0
198 10 -2 7 -64 200 -136 428 -72 228 -136 425 -141 438 -9 22 -12 22 -210 22
-110 0 -200 -1 -200 -2z"/>
<path d="M13190 19008 c0 -7 63 -209 139 -448 l138 -435 202 -3 202 -2 -6 22
c-4 13 -68 215 -143 451 l-136 427 -198 0 c-152 0 -198 -3 -198 -12z"/>
<path d="M13620 19012 c0 -4 41 -136 91 -292 49 -157 113 -356 140 -442 l50
-158 200 0 c109 0 199 4 199 9 0 7 -194 621 -266 844 l-16 47 -199 0 c-109 0
-199 -3 -199 -8z"/>
<path d="M14055 18998 c4 -13 68 -215 143 -450 l136 -428 198 0 c152 0 198 3
198 13 0 6 -62 208 -139 447 l-138 435 -202 3 -202 2 6 -22z"/>
<path d="M14480 19018 c0 -2 65 -203 143 -448 l142 -445 203 -3 c111 -1 202
-1 202 0 0 2 -65 203 -143 448 l-142 445 -203 3 c-111 1 -202 1 -202 0z"/>
<path d="M14926 18973 c8 -27 72 -228 142 -448 l128 -400 203 -3 c190 -2 202
-1 197 15 -3 10 -67 208 -141 441 -74 232 -137 427 -140 432 -4 6 -88 10 -205
10 l-199 0 15 -47z"/>
<path d="M15350 19008 c0 -7 63 -209 139 -448 l139 -435 202 -3 c190 -2 202
-1 198 15 -3 10 -67 213 -143 451 l-139 432 -198 0 c-152 0 -198 -3 -198 -12z"/>
<path d="M15780 19013 c0 -5 63 -206 140 -447 77 -242 140 -441 140 -443 0 -2
90 -3 200 -3 126 0 200 4 200 10 0 9 -36 123 -216 688 l-65 202 -199 0 c-110
0 -200 -3 -200 -7z"/>
<path d="M16212 19008 c3 -7 67 -210 144 -450 l138 -438 202 0 202 0 -44 138
c-24 75 -88 277 -142 447 l-98 310 -203 3 c-161 2 -202 0 -199 -10z"/>
<path d="M16656 18973 c7 -27 71 -228 142 -448 l127 -400 204 -3 c161 -2 202
0 198 10 -2 7 -64 200 -136 428 -72 228 -136 425 -141 438 -9 22 -12 22 -209
22 l-200 0 15 -47z"/>
<path d="M17080 19008 c0 -7 63 -209 139 -448 l138 -435 203 -3 c190 -2 202
-1 198 15 -3 10 -67 213 -143 451 l-139 432 -198 0 c-152 0 -198 -3 -198 -12z"/>
<path d="M17510 19012 c0 -6 187 -598 271 -859 l11 -33 199 0 c109 0 199 4
199 9 0 7 -47 156 -226 719 l-55 172 -200 0 c-109 0 -199 -4 -199 -8z"/>
<path d="M3281 18709 c-66 -8 -157 -35 -226 -66 l-40 -18 35 -2 c19 -2 70 -10
113 -19 l78 -15 40 34 c22 19 65 48 97 65 l57 31 -45 -1 c-25 0 -74 -4 -109
-9z"/>
<path d="M3439 18692 c-57 -22 -129 -64 -152 -90 -18 -20 -18 -21 30 -42 26
-12 75 -27 107 -34 58 -12 61 -12 140 22 44 19 116 45 160 57 l81 22 -38 17
c-138 58 -257 75 -328 48z"/>
<path d="M2903 18560 c-63 -42 -92 -69 -60 -57 35 13 186 36 280 43 53 3 100
10 102 15 9 14 -65 30 -165 36 l-95 5 -62 -42z"/>
<path d="M3705 18579 c-38 -11 -96 -32 -128 -46 l-58 -26 128 -42 c70 -24 152
-54 182 -68 l53 -25 32 31 c17 18 51 41 74 51 23 10 42 22 42 26 0 3 -39 32
-86 63 -98 65 -122 69 -239 36z"/>
<path d="M3055 18519 c-122 -11 -261 -47 -294 -75 -60 -50 -211 -255 -211
-286 0 -4 24 -8 53 -8 64 0 158 -22 244 -56 95 -38 122 -30 201 61 36 43 62
83 62 96 0 54 40 179 88 272 4 8 -31 7 -143 -4z"/>
<path d="M3201 18489 c-21 -34 -63 -156 -74 -217 -7 -32 -5 -32 87 46 51 44
121 98 156 122 l63 43 -28 14 c-15 8 -63 17 -106 20 l-78 6 -20 -34z"/>
<path d="M3480 18487 c0 -3 17 -16 38 -28 53 -32 145 -103 230 -177 40 -35 74
-62 76 -60 1 1 10 28 20 58 9 30 19 60 22 66 3 6 -28 25 -67 43 -114 51 -319
114 -319 98z"/>
<path d="M3389 18428 c-68 -43 -196 -147 -241 -195 -19 -20 -30 -44 -34 -77
l-7 -48 49 6 c108 12 473 18 559 8 50 -6 92 -9 94 -6 2 2 4 20 5 40 1 35 -5
43 -89 117 -81 71 -193 155 -251 185 -19 10 -31 5 -85 -30z"/>
<path d="M4006 18445 c-21 -7 -54 -28 -72 -46 l-33 -32 78 -47 c43 -26 108
-68 145 -93 37 -26 71 -47 75 -47 5 0 25 7 45 15 l37 16 -33 46 c-38 53 -182
203 -195 203 -4 -1 -25 -7 -47 -15z"/>
<path d="M4166 18384 c39 -43 85 -98 103 -121 28 -37 36 -42 59 -37 15 4 31
10 36 15 5 4 -36 53 -90 109 -84 86 -105 102 -139 107 l-40 6 71 -79z"/>
<path d="M2520 18323 c-66 -50 -123 -108 -181 -186 -33 -43 -59 -83 -59 -87 0
-5 23 7 50 25 28 19 75 42 105 51 36 12 55 23 55 33 1 9 16 55 34 104 18 48
33 87 32 87 0 0 -17 -12 -36 -27z"/>
<path d="M3866 18305 c-34 -82 -32 -99 18 -159 68 -79 99 -82 207 -23 l82 45
-47 34 c-73 52 -218 138 -232 138 -8 0 -20 -16 -28 -35z"/>
<path d="M4106 18114 c-37 -19 -66 -37 -64 -39 2 -3 44 -16 93 -30 49 -15 132
-44 185 -65 l95 -39 -107 104 c-60 58 -114 105 -120 105 -7 -1 -44 -17 -82
-36z"/>
<path d="M2557 18132 c-23 -3 -33 -12 -49 -50 -12 -26 -23 -77 -26 -114 l-5
-68 95 45 c52 25 141 60 196 78 56 18 104 35 107 38 3 3 -30 18 -73 33 -77 26
-190 44 -245 38z"/>
<path d="M4568 18087 l-16 -52 31 -56 c30 -55 32 -56 89 -65 32 -6 58 -9 58
-7 0 20 -128 233 -140 233 -3 0 -12 -24 -22 -53z"/>
<path d="M2402 18095 c-29 -13 -80 -50 -113 -82 -53 -51 -62 -65 -84 -137 -21
-69 -48 -225 -40 -234 1 -1 21 19 44 47 23 27 74 74 115 106 l74 56 36 102
c45 130 53 167 35 167 -8 0 -38 -11 -67 -25z"/>
<path d="M3282 18109 c-57 -5 -117 -12 -134 -17 -32 -8 -32 -8 -29 -71 1 -35
6 -71 9 -81 4 -10 39 -47 78 -82 39 -35 95 -91 125 -125 30 -34 57 -62 61 -62
4 -1 58 36 120 82 62 46 158 114 214 151 l101 67 -5 57 c-2 31 -7 60 -11 64
-9 10 -247 28 -345 27 -45 -1 -127 -6 -184 -10z"/>
<path d="M3985 18051 c-3 -5 26 -54 65 -109 l70 -99 127 28 c71 16 141 29 157
29 19 0 26 4 20 9 -19 20 -197 91 -297 121 -112 32 -133 35 -142 21z"/>
<path d="M2785 18009 c-66 -22 -162 -60 -212 -84 -84 -41 -93 -48 -93 -73 0
-51 20 -196 42 -300 19 -92 24 -105 46 -113 14 -5 29 -6 33 -2 4 4 26 51 49
103 55 125 126 250 217 384 57 83 71 111 61 117 -17 11 -6 14 -143 -32z"/>
<path d="M3898 17998 c-34 -21 -48 -36 -48 -52 0 -23 38 -146 49 -158 4 -4 51
5 104 20 l98 28 -52 74 c-52 77 -88 121 -98 119 -3 0 -27 -14 -53 -31z"/>
<path d="M2904 17947 c-29 -39 -72 -106 -98 -148 -55 -91 -174 -336 -178 -365
-2 -15 14 -34 65 -72 l68 -52 147 74 c81 40 181 88 222 106 41 18 78 35 83 39
4 4 -7 47 -23 97 -17 49 -41 136 -54 194 l-22 105 -70 47 c-38 26 -73 48 -79
48 -5 0 -33 -33 -61 -73z"/>
<path d="M3690 17863 c-155 -107 -280 -201 -280 -212 0 -5 6 -14 14 -20 12
-10 42 -2 148 37 73 27 171 62 218 77 47 15 87 29 88 31 2 1 -6 35 -19 76 -12
40 -23 79 -25 86 -2 6 -7 12 -11 12 -4 -1 -64 -39 -133 -87z"/>
<path d="M3136 17873 c41 -184 92 -336 107 -326 29 17 137 107 137 114 0 11
-230 239 -241 239 -5 0 -7 -12 -3 -27z"/>
<path d="M4265 17864 c-66 -14 -123 -28 -127 -32 -4 -4 17 -49 47 -100 l53
-93 71 83 c38 46 84 102 101 126 l32 42 -29 -1 c-15 0 -82 -11 -148 -25z"/>
<path d="M4421 17835 c-13 -20 -57 -74 -98 -121 -40 -48 -73 -90 -73 -94 0 -4
18 -46 40 -93 l40 -87 35 21 c19 12 35 22 35 22 0 1 9 47 19 102 19 94 39 285
30 285 -2 0 -15 -16 -28 -35z"/>
<path d="M2428 17843 c-25 -29 -76 -328 -61 -355 2 -5 19 -8 36 -8 18 0 49 -5
70 -11 22 -6 41 -9 43 -6 2 2 -3 35 -12 73 -13 57 -43 266 -44 312 0 17 -14
15 -32 -5z"/>
<path d="M4466 17775 c-11 -91 -35 -242 -43 -262 -7 -17 -5 -17 22 1 17 11 45
29 63 40 31 20 33 23 27 66 -4 25 -19 83 -34 130 l-28 85 -7 -60z"/>
<path d="M2318 17762 c-36 -31 -87 -83 -113 -115 l-48 -57 7 -73 c4 -39 10
-82 13 -94 l5 -22 41 27 c22 15 59 34 81 42 l41 16 7 82 c4 45 14 119 22 164
9 45 14 83 13 84 -2 2 -32 -23 -69 -54z"/>
<path d="M3996 17794 c-43 -13 -81 -25 -83 -28 -11 -11 90 -198 141 -261 l25
-30 70 70 c39 38 71 74 71 79 0 5 -23 52 -52 103 -58 106 -52 103 -172 67z"/>
<path d="M3720 17706 c-85 -30 -183 -64 -217 -77 l-62 -24 58 -85 c64 -92 129
-208 176 -310 16 -36 31 -67 32 -69 6 -8 353 305 353 319 0 4 -25 45 -57 91
-31 46 -69 112 -85 147 -15 34 -32 62 -36 61 -4 0 -77 -24 -162 -53z"/>
<path d="M4671 17659 l-24 -19 37 -80 c19 -43 47 -116 60 -162 24 -82 24 -83
37 -55 10 23 10 40 0 90 -15 74 -71 247 -80 247 -3 -1 -17 -10 -30 -21z"/>
<path d="M4594 17597 l-27 -24 12 -89 c7 -49 12 -135 13 -191 0 -82 3 -103 15
-103 24 0 87 37 117 69 l30 31 -23 78 c-26 89 -93 252 -103 252 -4 0 -19 -11
-34 -23z"/>
<path d="M3335 17562 c-49 -19 -92 -37 -94 -38 -16 -13 231 -445 266 -467 8
-5 171 58 185 71 17 16 -221 442 -260 466 -4 2 -47 -12 -97 -32z"/>
<path d="M4155 17530 l-69 -70 48 -49 49 -50 58 29 c32 16 60 34 64 40 7 11
-63 170 -74 170 -4 0 -38 -31 -76 -70z"/>
<path d="M4476 17517 c-57 -40 -60 -45 -80 -117 -21 -72 -21 -77 -5 -130 15
-52 18 -56 65 -72 64 -22 113 -23 121 -1 7 17 -13 302 -23 341 -4 12 -9 22
-13 22 -3 -1 -33 -20 -65 -43z"/>
<path d="M3124 17424 c-54 -48 -133 -120 -176 -162 l-76 -75 42 -57 c24 -32
64 -99 90 -149 26 -50 48 -91 49 -91 15 0 427 147 436 155 2 2 -27 51 -65 107
-38 57 -97 159 -131 227 -34 68 -64 125 -66 127 -2 2 -48 -35 -103 -82z"/>
<path d="M3130 17477 c-143 -68 -344 -168 -348 -172 -6 -5 68 -95 78 -95 4 0
48 37 97 83 49 45 120 110 158 144 39 34 68 62 65 62 -3 0 -25 -10 -50 -22z"/>
<path d="M2360 17395 c0 -83 17 -256 28 -286 7 -17 12 -15 69 22 61 40 63 43
86 118 l23 76 -21 60 c-18 55 -23 60 -60 71 -22 7 -59 13 -82 13 l-43 1 0 -75z"/>
<path d="M2259 17432 c-73 -47 -75 -52 -56 -133 18 -73 95 -269 106 -269 3 0
19 10 34 23 l29 22 -11 75 c-5 41 -13 128 -17 193 -8 134 -10 136 -85 89z"/>
<path d="M4038 17413 c-20 -21 -91 -85 -156 -143 -66 -58 -118 -106 -117 -108
5 -5 348 157 372 176 l22 17 -42 48 -42 48 -37 -38z"/>
<path d="M4110 17305 c-36 -19 -137 -66 -225 -106 -88 -40 -162 -74 -164 -76
-2 -1 11 -46 29 -100 17 -53 42 -142 54 -197 l21 -100 73 -49 c61 -42 75 -47
88 -36 25 21 158 227 213 329 41 78 121 253 121 265 0 2 -22 17 -49 34 -26 17
-56 40 -66 51 -10 11 -21 20 -24 20 -3 -1 -35 -16 -71 -35z"/>
<path d="M2152 17301 c-9 -24 -6 -48 14 -123 27 -103 63 -208 72 -208 3 0 16
9 28 20 l21 21 -38 90 c-22 49 -47 117 -56 152 -21 78 -28 86 -41 48z"/>
<path d="M2688 17257 c-32 -18 -58 -37 -58 -43 0 -18 69 -164 78 -164 4 0 38
31 76 69 l69 69 -48 51 c-26 28 -50 51 -54 50 -3 0 -32 -15 -63 -32z"/>
<path d="M4720 17229 c-19 -17 -55 -36 -80 -43 l-45 -13 -11 -106 c-7 -58 -17
-129 -23 -157 -15 -69 -14 -73 7 -61 28 15 138 118 173 162 30 38 32 46 30
107 -2 37 -6 83 -9 104 l-7 36 -35 -29z"/>
<path d="M4320 17191 c-42 -119 -185 -377 -278 -504 -45 -60 -49 -72 -29 -80
20 -8 242 69 346 119 l94 46 -6 102 c-6 98 -24 210 -46 292 -8 29 -18 42 -39
50 -28 11 -30 10 -42 -25z"/>
<path d="M2572 17188 c-18 -11 -34 -30 -37 -42 -24 -102 -37 -186 -41 -266
l-5 -95 23 30 c12 17 58 71 100 121 l77 92 -38 86 c-21 48 -40 89 -42 91 -3 2
-19 -5 -37 -17z"/>
<path d="M4421 17159 c18 -62 49 -260 49 -315 0 -56 5 -62 33 -41 21 14 53
161 63 283 l6 81 -58 6 c-33 4 -69 10 -81 13 -21 6 -22 4 -12 -27z"/>
<path d="M2786 17101 c-52 -53 -67 -74 -62 -88 19 -51 103 -183 116 -183 18 0
181 48 188 55 13 13 -137 273 -163 282 -6 2 -41 -28 -79 -66z"/>
<path d="M2453 17115 c-28 -19 -54 -38 -56 -42 -6 -10 35 -174 55 -223 l15
-35 7 83 c3 45 13 119 22 163 8 45 14 83 12 85 -2 2 -27 -12 -55 -31z"/>
<path d="M3628 17054 c-38 -30 -68 -59 -68 -64 0 -11 229 -240 240 -240 4 0
-1 39 -11 88 -20 92 -78 272 -88 272 -3 0 -36 -25 -73 -56z"/>
<path d="M3411 17000 c-40 -16 -136 -50 -212 -75 -77 -26 -139 -50 -139 -53 1
-15 47 -162 52 -167 11 -11 418 276 418 294 0 11 -23 31 -34 30 -6 0 -44 -13
-85 -29z"/>
<path d="M2630 16933 c-94 -111 -133 -163 -128 -168 6 -6 91 9 216 36 l93 21
-31 51 c-17 29 -41 71 -52 95 -12 23 -24 42 -28 42 -3 0 -35 -35 -70 -77z"/>
<path d="M4704 16939 c-38 -38 -90 -84 -115 -102 -43 -29 -50 -40 -79 -122
-39 -112 -55 -173 -47 -181 13 -13 140 57 192 107 48 45 58 62 80 130 20 65
49 228 41 236 -1 1 -33 -29 -72 -68z"/>
<path d="M3425 16899 c-61 -45 -156 -113 -213 -151 l-102 -69 6 -57 c4 -31 9
-60 13 -64 3 -4 74 -12 158 -18 144 -10 377 -2 494 16 l42 7 -6 79 c-6 75 -8
79 -44 110 -21 17 -81 75 -134 130 -53 54 -98 98 -100 98 -3 0 -54 -37 -114
-81z"/>
<path d="M2935 16843 c-49 -15 -92 -28 -94 -29 -2 -2 25 -42 60 -90 35 -48 67
-92 70 -97 4 -6 31 4 63 22 42 24 56 38 55 54 0 33 -43 160 -54 163 -6 1 -50
-9 -100 -23z"/>
<path d="M2793 16804 c-6 -3 -73 -18 -149 -33 l-137 -27 69 -33 c72 -35 318
-121 344 -121 8 0 21 4 29 9 12 7 9 16 -16 48 -16 21 -49 66 -72 101 -42 62
-45 65 -68 56z"/>
<path d="M2210 16743 c0 -24 129 -238 138 -228 3 2 12 27 22 54 l16 50 -34 55
c-18 31 -39 56 -45 56 -7 1 -31 5 -54 9 -24 5 -43 7 -43 4z"/>
<path d="M4348 16701 c-54 -26 -140 -61 -193 -77 -52 -16 -95 -32 -95 -35 0
-17 171 -62 255 -66 l90 -5 22 48 c22 50 42 185 26 183 -4 0 -52 -22 -105 -48z"/>
<path d="M2619 16616 c127 -128 122 -126 212 -80 84 42 90 35 -68 83 -56 17
-133 45 -170 62 l-68 30 94 -95z"/>
<path d="M4610 16574 c-25 -18 -71 -41 -102 -51 -54 -17 -57 -20 -68 -61 -5
-23 -22 -67 -35 -98 -14 -31 -25 -58 -25 -61 0 -13 130 100 175 152 50 58 110
144 103 150 -2 1 -23 -13 -48 -31z"/>
<path d="M3988 16576 c-25 -7 -55 -32 -95 -76 -56 -62 -59 -69 -76 -154 -10
-49 -31 -118 -48 -154 l-29 -65 112 6 c71 3 148 15 207 30 81 22 99 30 138 68
61 60 193 240 193 263 0 2 -35 6 -77 9 -80 6 -190 35 -253 67 -29 14 -41 15
-72 6z"/>
<path d="M2847 16529 c-67 -34 -77 -42 -66 -55 13 -16 147 -105 222 -148 l48
-27 20 46 c38 85 36 104 -19 161 -69 73 -101 77 -205 23z"/>
<path d="M3125 16532 c-3 -3 -5 -20 -5 -37 0 -26 12 -43 68 -97 71 -69 204
-170 263 -202 l36 -19 79 54 c43 30 116 88 163 130 86 75 86 75 89 128 l3 53
-38 -6 c-70 -11 -507 -18 -581 -9 -40 5 -74 7 -77 5z"/>
<path d="M2687 16454 c-34 -19 -32 -23 68 -137 84 -96 119 -124 149 -118 32 5
78 30 109 59 l27 26 -77 45 c-43 24 -108 66 -145 93 -73 52 -88 55 -131 32z"/>
<path d="M3095 16376 c-11 -33 -21 -66 -22 -71 -4 -13 42 -36 152 -77 107 -39
216 -69 227 -62 6 4 -10 18 -34 32 -61 36 -172 121 -243 185 l-61 55 -19 -62z"/>
<path d="M2593 16423 c-13 -2 -23 -9 -23 -15 0 -6 44 -55 98 -109 81 -82 104
-99 137 -105 l40 -7 -62 67 c-34 36 -81 91 -104 121 -23 30 -46 54 -53 54 -6
-1 -21 -4 -33 -6z"/>
<path d="M3731 16340 c-35 -33 -99 -83 -142 -112 -43 -29 -78 -56 -79 -59 0
-14 59 -30 131 -36 l77 -6 25 49 c43 86 80 225 60 224 -5 -1 -37 -28 -72 -60z"/>
<path d="M3024 16249 c-15 -16 -50 -40 -76 -53 l-48 -24 37 -30 c21 -16 64
-45 96 -64 55 -33 60 -35 115 -26 91 14 274 80 260 93 -2 3 -43 16 -89 29 -47
14 -126 43 -176 64 l-91 40 -28 -29z"/>
<path d="M4025 16134 c-33 -8 -116 -18 -184 -22 -79 -4 -126 -11 -128 -19 -5
-13 66 -30 165 -39 78 -7 127 9 196 65 42 34 39 35 -49 15z"/>
<path d="M3387 16109 c-32 -17 -101 -42 -154 -57 l-95 -27 48 -21 c27 -12 89
-32 138 -44 87 -22 92 -22 150 -5 69 19 116 44 163 88 l32 30 -57 24 c-43 17
-162 48 -166 42 -1 0 -27 -14 -59 -30z"/>
<path d="M3659 16034 c-19 -18 -63 -50 -99 -69 l-65 -36 75 6 c118 9 189 24
275 58 l80 31 -80 12 c-44 6 -96 16 -116 22 -34 9 -39 8 -70 -24z"/>
<path d="M9960 16844 c-716 -36 -1383 -171 -2023 -411 -352 -132 -639 -265
-947 -440 -856 -488 -1586 -1148 -2151 -1945 -207 -293 -349 -531 -518 -868
-371 -743 -581 -1477 -668 -2340 -22 -216 -24 -838 -5 -1085 54 -669 197
-1302 429 -1900 649 -1672 1982 -3036 3633 -3717 668 -276 1366 -439 2085
-488 205 -14 675 -14 875 0 767 53 1470 223 2177 526 757 324 1467 807 2063
1404 838 840 1434 1881 1725 3015 44 171 105 451 105 483 0 14 -9 17 -41 17
-33 0 -46 6 -65 28 -32 38 -30 72 5 108 33 32 58 36 100 14 l29 -14 11 77 c75
529 82 1082 20 1657 -204 1907 -1250 3645 -2849 4737 -803 549 -1725 915
-2685 1067 -294 47 -593 70 -940 75 -159 2 -324 2 -365 0z m685 -1782 c61 -21
151 -81 174 -115 9 -14 29 -41 44 -60 26 -32 43 -71 83 -183 8 -23 21 -55 29
-70 8 -16 15 -39 15 -51 0 -13 13 -32 31 -45 42 -31 76 -101 84 -173 3 -33 12
-89 19 -125 14 -68 14 -196 1 -432 -7 -112 -5 -141 6 -154 8 -10 14 -38 14
-63 0 -36 4 -46 18 -49 10 -2 25 5 32 15 11 14 16 15 26 6 10 -10 9 -33 -4
-117 -9 -57 -17 -129 -17 -160 0 -64 -16 -141 -37 -171 -7 -11 -13 -31 -13
-45 0 -14 -5 -32 -11 -40 -7 -11 -9 6 -4 60 11 116 10 141 -6 151 -24 15 -28
11 -34 -38 -4 -27 -13 -66 -22 -88 -10 -28 -13 -56 -8 -94 l7 -55 18 24 c22
29 35 21 26 -15 -5 -20 -11 -25 -26 -20 -13 4 -28 -2 -46 -20 -30 -30 -27 -49
9 -53 23 -3 27 -8 27 -34 0 -64 -32 -125 -102 -195 -38 -36 -68 -75 -68 -85 0
-10 -4 -18 -9 -18 -13 0 -48 -62 -56 -98 -3 -17 -13 -36 -21 -43 -18 -15 -18
-40 1 -65 10 -13 14 -42 14 -89 -1 -58 -2 -64 -9 -36 -7 31 -42 70 -62 71 -4
0 -15 -11 -24 -25 -19 -29 -61 -51 -119 -63 -56 -11 -56 -12 53 -216 18 -32
32 -65 32 -73 0 -8 12 -35 26 -59 35 -60 61 -57 82 9 29 91 49 41 37 -91 -5
-48 -8 -99 -7 -114 2 -53 266 -529 304 -549 22 -12 757 -6 1223 10 138 5 266
8 285 7 19 0 195 3 390 7 324 8 359 7 405 -8 46 -16 93 -17 565 -11 283 3 625
8 760 11 135 3 563 8 952 11 l706 5 6 -38 c77 -486 73 -1235 -9 -1788 -94
-634 -293 -1267 -581 -1845 -170 -342 -340 -623 -547 -908 -61 -84 -121 -132
-165 -132 -19 0 -22 -6 -22 -46 0 -25 -5 -54 -11 -66 -11 -20 -11 -19 -40 8
-16 15 -29 34 -29 41 0 7 -11 13 -25 13 -19 0 -28 -7 -35 -27 -6 -16 -15 -35
-20 -43 -6 -8 -14 -25 -20 -38 -5 -12 -20 -26 -32 -31 -14 -5 -17 -10 -10 -15
20 -12 13 -41 -16 -69 -24 -23 -37 -27 -85 -27 l-57 0 0 -45 c0 -34 -5 -47
-20 -55 -12 -6 -20 -21 -20 -35 0 -28 -26 -45 -69 -45 -16 0 -33 -5 -36 -11
-5 -7 -14 -3 -26 10 -31 33 -62 27 -90 -16 -29 -45 -42 -47 -49 -7 -4 22 -11
30 -30 32 -21 2 -27 -3 -35 -30 l-10 -33 -124 -3 c-133 -3 -159 5 -125 36 10
10 27 21 37 25 13 5 17 15 15 34 -2 23 -8 29 -34 31 -27 3 -33 -1 -42 -27 -6
-17 -18 -31 -27 -31 -9 0 -13 5 -10 10 3 6 2 10 -3 10 -13 0 -22 -36 -22 -92
0 -36 -6 -53 -25 -74 l-26 -28 -37 37 c-41 41 -72 48 -72 18 0 -23 -87 -129
-113 -137 -11 -3 -29 -2 -41 4 -11 6 -29 13 -39 16 -26 8 -16 30 16 34 22 3
27 8 27 33 l0 29 -72 0 c-60 0 -76 4 -95 21 -25 24 -27 22 -38 -43 l-6 -38 50
0 c27 0 53 -5 56 -10 11 -18 -41 -63 -64 -55 -14 4 -24 0 -33 -14 -21 -34 -30
-24 -26 29 2 39 0 50 -12 52 -8 0 -60 1 -116 2 -71 1 -106 5 -118 15 -12 11
-20 11 -28 3 -8 -8 -7 -13 5 -18 19 -7 23 -24 7 -24 -6 0 -16 11 -22 25 -11
25 -14 26 -67 19 -31 -3 -60 -10 -66 -15 -5 -5 -21 -9 -37 -9 -16 0 -31 -7
-37 -17 -10 -20 -10 -20 159 -25 l75 -3 0 -30 c0 -27 -3 -30 -37 -33 -29 -3
-38 1 -43 17 -7 24 -43 36 -77 26 -13 -4 -38 -23 -55 -44 -32 -35 -33 -35 -39
-13 -3 12 -10 22 -15 22 -4 0 -7 19 -6 43 2 37 -1 42 -21 45 -15 2 -31 -6 -49
-27 -30 -33 -71 -41 -115 -20 -31 13 -78 -4 -85 -31 -6 -23 -23 -24 -78 -5
-22 8 -57 15 -77 15 -32 0 -38 -3 -38 -20 0 -32 -40 -80 -67 -80 -12 0 -28 9
-35 20 -10 16 -24 20 -69 20 -39 0 -61 5 -69 16 -8 8 -25 14 -39 12 -23 -3
-27 -8 -31 -53 l-5 -50 -74 2 c-70 2 -76 4 -111 38 -29 29 -43 35 -78 35 l-41
0 -7 50 c-7 57 -16 58 -21 3 -3 -31 1 -41 32 -70 39 -36 47 -73 16 -73 -11 0
-21 6 -24 13 -3 9 -9 8 -23 -5 -18 -16 -21 -15 -61 23 -32 30 -42 47 -45 76
l-3 38 -56 3 c-41 2 -59 -1 -69 -13 -16 -20 -37 -19 -48 1 -8 14 -14 9 -38
-27 -17 -25 -39 -45 -51 -47 -24 -4 -53 31 -53 64 0 13 -13 36 -30 52 -25 26
-27 32 -16 47 8 11 20 16 30 12 12 -5 16 0 16 21 0 15 7 36 15 46 21 27 19 46
-5 46 -11 0 -20 -7 -20 -15 0 -8 -9 -19 -19 -25 -11 -5 -23 -19 -26 -31 -6
-19 -8 -19 -33 8 -25 26 -27 36 -30 126 -5 122 -10 127 -129 127 -53 0 -84 4
-89 12 -12 18 -11 189 1 178 17 -18 38 -10 67 23 26 30 29 31 42 14 18 -24 48
-15 66 18 7 14 21 25 30 25 25 0 31 11 17 28 -10 12 -9 16 1 20 10 3 10 7 2
18 -7 7 -8 18 -4 25 5 8 9 7 16 -5 5 -9 22 -16 40 -16 l30 0 -6 -47 c-4 -27
-8 -66 -9 -88 -2 -35 1 -40 19 -38 11 1 37 18 58 36 30 28 36 39 31 59 -11 42
47 81 62 42 6 -17 -26 -84 -42 -84 -7 0 -7 -3 0 -8 6 -4 26 -25 46 -48 l36
-40 26 70 c67 176 50 545 -29 661 -8 11 -14 26 -14 33 0 33 -121 159 -180 188
-19 9 -48 24 -65 33 -42 23 -208 21 -250 -2 -16 -9 -37 -17 -45 -17 -9 0 -26
-7 -39 -16 -31 -22 -119 -22 -157 -1 -88 49 -121 57 -231 57 -91 -1 -115 -4
-153 -23 -95 -47 -174 -115 -185 -159 -6 -23 0 -34 39 -73 93 -93 126 -171
126 -302 0 -68 -4 -94 -15 -103 -9 -8 -15 -30 -15 -56 0 -31 -4 -44 -14 -44
-8 0 -16 -7 -20 -15 -3 -8 -11 -15 -18 -15 -7 0 -19 -13 -26 -30 -17 -37 -55
-43 -50 -7 2 16 -3 23 -19 25 -27 4 -28 0 -7 -44 9 -19 15 -37 13 -39 -11 -10
-120 -7 -162 5 -38 12 -49 20 -63 53 -21 46 -48 64 -70 46 -12 -10 -20 -8 -41
14 -28 28 -30 25 23 42 31 10 2 23 -65 30 -66 7 -70 8 -80 37 -6 17 -11 43
-11 58 0 34 -33 78 -63 82 -17 2 -23 11 -25 38 -6 64 -66 105 -148 101 -36 -1
-54 3 -64 14 -7 8 -25 15 -40 15 -37 0 -61 10 -54 21 3 5 16 9 30 9 27 0 32
21 9 40 -8 7 -15 23 -15 36 0 20 -5 23 -47 26 -46 3 -48 4 -48 33 0 28 3 30
43 33 34 3 42 7 42 23 0 11 -7 19 -17 20 -10 0 -45 1 -78 2 -55 2 -60 4 -63
26 -2 13 -19 39 -39 57 -34 32 -34 33 -13 44 20 11 21 13 5 30 -9 10 -23 16
-31 13 -11 -4 -14 5 -13 43 1 27 5 54 9 59 32 42 -15 102 -96 125 -25 7 -56
22 -69 32 -28 22 -33 65 -10 74 23 9 18 56 -9 81 -18 18 -36 23 -76 23 -67 0
-100 27 -100 82 0 28 -7 42 -31 62 -17 14 -40 26 -52 26 -12 0 -29 4 -37 10
-12 7 -12 12 4 29 25 27 23 67 -3 95 -27 28 -29 110 -4 138 23 26 8 36 -57 40
-52 3 -55 5 -58 31 -4 31 -19 35 -37 10 -12 -16 -18 -12 -62 35 -41 44 -55 52
-85 52 -43 0 -56 13 -60 65 -3 37 0 41 32 57 19 10 43 18 53 18 15 0 18 6 15
33 -2 26 -8 33 -29 35 -25 3 -27 6 -31 76 -5 80 -28 125 -63 126 -12 0 -41 20
-65 45 -43 43 -43 45 -25 60 19 14 19 16 3 29 -10 7 -18 22 -18 33 0 11 -9 28
-20 38 -11 10 -20 27 -20 38 0 11 -8 26 -17 32 -17 13 -17 14 0 32 23 26 25
154 2 173 -8 7 -15 20 -15 29 0 9 -16 33 -36 53 -33 35 -35 40 -32 95 3 55 4
58 32 63 35 6 37 23 4 29 -12 1 -34 14 -47 27 -24 24 -24 24 -5 47 10 12 22
25 27 28 4 3 12 20 17 38 7 26 5 36 -11 52 -10 10 -24 19 -31 19 -20 0 -58 42
-58 66 0 12 -7 27 -15 34 -8 7 -15 23 -15 36 0 29 -35 42 -59 20 -15 -14 -18
-13 -29 4 -15 24 -16 66 -2 75 13 8 13 119 1 143 -5 9 -12 25 -15 36 -5 14
-13 17 -36 14 -27 -4 -29 -3 -15 12 21 23 19 30 -8 30 -13 0 -32 9 -42 20 -10
11 -26 20 -35 20 -10 0 -23 7 -30 15 -7 8 -23 15 -36 15 -37 0 -39 20 -5 50
35 32 38 42 16 60 -8 7 -15 20 -15 30 0 10 -7 23 -15 30 -9 8 -15 30 -15 56 0
42 2 44 28 44 18 0 38 -11 57 -30 21 -22 37 -30 55 -28 23 3 25 8 28 55 l3 53
-44 -6 c-37 -5 -47 -3 -70 19 -30 27 -36 64 -12 74 9 3 15 13 14 22 -1 9 0 23
4 31 16 44 15 63 -4 79 -13 10 -21 31 -23 58 -2 22 -10 55 -19 71 -14 30 -14
32 11 48 22 14 30 15 60 4 31 -11 37 -10 48 5 10 13 17 14 33 6 24 -13 61 -14
81 -1 12 8 10 14 -14 39 l-28 30 33 5 c19 3 115 8 214 10 99 3 194 9 210 15
40 12 684 26 1050 22 304 -3 980 22 1098 40 59 10 67 13 67 32 0 42 -42 132
-92 195 -27 35 -63 96 -79 135 -17 40 -42 94 -56 122 -33 62 -49 213 -27 256
12 24 10 31 -22 83 -60 95 -87 224 -66 310 6 22 13 53 17 68 9 43 62 98 95 98
41 0 60 10 60 30 0 31 23 41 55 24 16 -8 33 -20 36 -26 11 -17 21 29 14 62 -4
17 -12 30 -19 30 -6 0 -26 18 -42 40 -50 65 -76 81 -113 70 -30 -8 -37 -5 -94
41 -34 28 -73 56 -87 62 -14 6 -36 19 -49 29 -13 10 -30 18 -37 18 -7 0 -28
10 -48 23 -44 27 -47 60 -10 114 25 37 27 38 99 43 59 5 79 11 99 29 18 17 32
22 48 17 55 -14 155 -138 215 -267 43 -92 108 -136 133 -90 5 11 10 69 10 129
0 84 -5 123 -19 164 -11 29 -22 65 -25 79 -3 14 -16 42 -30 61 -13 20 -27 47
-31 59 -15 47 -182 179 -226 179 -32 0 -32 0 -29 -88 1 -35 -4 -77 -10 -93
-12 -28 -14 -29 -31 -13 -11 10 -19 23 -19 29 0 21 -87 112 -133 139 -45 26
-97 90 -97 118 0 9 -12 26 -26 37 -24 19 -26 26 -21 67 2 25 14 55 24 67 21
23 38 95 49 209 4 38 12 76 19 85 11 15 15 11 34 -31 11 -27 21 -56 21 -65 0
-9 7 -27 15 -41 7 -14 21 -40 29 -58 20 -44 112 -133 185 -179 31 -20 77 -55
104 -79 68 -61 121 -84 193 -84 87 0 106 26 59 82 -38 45 -33 71 17 93 l42 18
-43 38 c-54 48 -53 75 3 72 21 -1 46 -9 55 -16 45 -38 157 -63 189 -43 26 16
8 115 -21 116 -20 1 -85 94 -89 126 -3 32 -2 32 103 18 60 -8 74 7 56 62 -8
28 -34 60 -83 106 -63 58 -78 67 -120 73 -27 3 -60 8 -74 11 -14 3 -59 9 -100
13 -71 6 -136 30 -152 55 -4 6 -10 34 -14 62 -7 61 21 138 55 149 11 3 31 28
45 58 13 29 35 68 48 87 39 57 40 69 13 96 -13 13 -28 24 -33 24 -22 0 -31 49
-21 116 5 38 7 81 3 97 -4 18 0 37 11 53 15 23 15 27 1 43 -23 25 -20 43 7 41
50 -4 59 -1 55 24 -4 29 18 56 46 56 11 -1 44 -9 71 -18z m-1121 -2277 c3 -8
12 -15 20 -15 31 0 25 -20 -9 -34 -19 -8 -35 -21 -35 -29 0 -8 -6 -20 -14 -26
-8 -7 -17 -24 -21 -38 -3 -15 -18 -41 -33 -57 -25 -29 -29 -30 -62 -20 -43 14
-48 36 -25 113 27 95 35 105 85 112 76 10 88 9 94 -6z m1132 -6786 c15 -16 19
-59 7 -59 -39 1 -52 14 -55 53 -2 29 -8 43 -19 45 -12 2 -16 -5 -14 -28 4 -69
4 -70 30 -70 27 0 32 -18 15 -50 -7 -14 -21 -18 -56 -18 -44 1 -45 2 -39 27 3
14 13 31 21 38 13 10 12 13 -6 26 -20 14 -21 17 -7 43 8 15 32 37 53 49 l39
22 8 -31 c5 -17 15 -38 23 -47z"/>
<path d="M10573 7624 c-9 -23 3 -165 14 -173 6 -3 14 -20 17 -38 4 -17 14 -34
22 -37 8 -3 14 -12 14 -19 0 -31 130 -147 164 -147 8 0 27 -7 42 -15 42 -22
71 -19 90 10 15 23 15 33 3 102 -7 42 -18 81 -24 87 -5 6 -19 29 -30 50 -20
39 -84 110 -121 134 -85 55 -179 78 -191 46z"/>
<path d="M18380 7008 c-65 -34 -85 -67 -85 -143 0 -74 19 -107 81 -142 72 -41
205 -24 256 33 42 48 42 169 0 218 -50 56 -174 73 -252 34z"/>
<path d="M16849 4462 c-41 -27 -97 -70 -125 -95 -49 -44 -164 -178 -164 -190
0 -3 71 -3 158 0 116 4 160 9 168 19 6 8 14 49 18 91 4 43 13 111 20 151 7 39
9 72 5 72 -3 0 -40 -22 -80 -48z"/>
<path d="M16690 4451 c-136 -46 -148 -52 -190 -98 -45 -49 -84 -131 -71 -150
10 -18 82 -33 101 -23 10 5 33 29 51 52 51 68 128 145 199 201 36 28 69 54 75
59 20 17 -25 6 -165 -41z"/>
<path d="M16945 4488 c-2 -7 -11 -75 -21 -151 -19 -157 -20 -157 54 -157 29 0
44 5 49 15 10 28 -18 275 -34 291 -18 17 -42 18 -48 2z"/>
<path d="M17084 4429 c38 -39 93 -111 124 -158 31 -47 61 -90 66 -94 26 -20
235 13 268 42 12 10 -142 119 -245 172 -95 49 -193 89 -251 103 -27 7 -24 1
38 -65z"/>
<path d="M17186 4461 c120 -50 247 -126 356 -213 39 -31 46 -15 18 38 -64 119
-124 156 -314 195 -148 30 -166 24 -60 -20z"/>
<path d="M16425 4436 c-104 -36 -205 -83 -211 -100 -7 -19 22 -63 47 -71 36
-12 269 149 269 185 0 16 -30 11 -105 -14z"/>
<path d="M17035 4335 c4 -66 9 -128 11 -137 4 -13 21 -17 92 -20 48 -2 91 0
96 4 13 10 -94 165 -154 223 l-52 50 7 -120z"/>
<path d="M16137 4300 c-26 -16 -68 -51 -93 -77 -42 -42 -134 -164 -134 -176 0
-2 42 8 94 23 88 25 100 33 170 95 42 38 76 72 76 76 0 5 -10 19 -22 32 -13
13 -27 31 -33 41 -9 15 -14 14 -58 -14z"/>
<path d="M17663 4266 c-11 -13 -26 -25 -33 -28 -20 -6 -3 -56 29 -88 15 -16
45 -33 67 -39 21 -5 97 -26 168 -46 71 -19 131 -33 133 -31 6 6 -148 143 -228
202 -41 29 -83 54 -95 54 -11 0 -30 -11 -41 -24z"/>
<path d="M16438 4143 c-22 -3 -42 -11 -47 -21 -13 -24 -61 -244 -61 -278 0
-23 13 -4 61 85 33 62 73 134 89 159 28 46 30 64 7 60 -7 -1 -29 -3 -49 -5z"/>
<path d="M16555 4140 c-34 -14 -61 -51 -128 -180 -91 -173 -119 -260 -115
-358 l3 -77 40 -7 c61 -12 486 2 490 16 5 14 35 485 35 544 l0 42 -67 0 c-38
1 -104 7 -148 15 -91 17 -84 16 -110 5z"/>
<path d="M17310 4140 c-12 -7 -9 -20 19 -82 55 -122 110 -273 148 -406 20 -70
38 -130 42 -134 3 -3 56 3 116 15 l110 22 -2 79 c-6 167 -70 447 -108 472 -11
7 -76 20 -143 28 -143 18 -162 19 -182 6z"/>
<path d="M17150 4129 c-46 -5 -88 -13 -92 -17 -4 -4 -4 -137 0 -297 l7 -290
208 -9 c114 -5 211 -6 214 -2 17 16 -84 332 -160 505 -45 100 -60 122 -82 120
-5 -1 -48 -6 -95 -10z"/>
<path d="M16223 4108 l-103 -20 -60 -64 c-101 -108 -252 -336 -234 -354 29
-28 341 -130 400 -130 22 0 64 142 85 279 11 75 28 173 39 219 11 46 20 85 20
88 0 8 -45 2 -147 -18z"/>
<path d="M16905 4110 c-8 -13 -35 -386 -35 -492 0 -49 3 -88 8 -88 4 0 39 -3
78 -5 52 -4 74 -2 82 8 18 21 3 554 -15 573 -16 16 -108 19 -118 4z"/>
<path d="M17717 4087 c4 -7 29 -38 55 -70 66 -80 136 -185 193 -289 26 -49 49
-88 52 -88 15 0 124 65 144 86 20 22 21 27 10 62 -25 73 -86 176 -118 198 -58
38 -352 127 -336 101z"/>
<path d="M17680 4076 c0 -4 11 -51 25 -104 29 -111 55 -275 55 -343 0 -70 10
-73 124 -38 53 17 100 37 103 45 7 18 -92 192 -166 291 -57 76 -141 165 -141
149z"/>
<path d="M16015 4060 c-79 -20 -135 -60 -164 -119 -29 -57 -83 -229 -76 -241
11 -18 32 -11 44 17 23 51 124 198 188 276 64 77 65 82 8 67z"/>
<path d="M15815 3978 c-85 -43 -142 -121 -130 -178 6 -25 60 -89 69 -79 2 2
14 36 26 74 12 39 36 99 51 134 16 35 28 65 27 67 -2 1 -21 -7 -43 -18z"/>
<path d="M15612 3712 c-68 -149 -102 -279 -126 -476 l-6 -49 43 40 c24 22 64
52 89 67 26 15 51 39 57 54 17 42 49 169 65 260 l16 83 -35 36 c-19 19 -37 44
-40 54 -4 11 -10 19 -14 19 -5 0 -26 -40 -49 -88z"/>
<path d="M18210 3756 c0 -8 11 -61 25 -118 14 -57 30 -158 37 -225 l11 -122
54 -41 c30 -22 56 -40 59 -40 5 0 -3 61 -23 163 -19 100 -53 199 -105 310 -39
82 -58 106 -58 73z"/>
<path d="M18156 3701 c-10 -11 -42 -32 -72 -48 -60 -31 -64 -43 -35 -101 10
-20 22 -53 26 -72 10 -48 30 -85 63 -115 30 -28 109 -62 119 -51 11 11 -14
225 -37 319 -23 90 -34 101 -64 68z"/>
<path d="M15770 3578 c-37 -85 -59 -193 -42 -210 8 -8 34 -4 96 16 86 27 266
70 342 82 46 7 70 25 61 47 -3 8 -34 20 -69 27 -76 15 -202 53 -280 86 -32 13
-61 24 -66 24 -5 0 -24 -33 -42 -72z"/>
<path d="M17930 3590 c-30 -11 -74 -24 -98 -30 -84 -22 -95 -102 -15 -115 21
-4 81 -18 133 -32 152 -40 142 -40 134 -7 -14 59 -77 204 -88 203 -6 0 -36 -9
-66 -19z"/>
<path d="M17399 3486 c-2 -3 -75 -9 -161 -14 -86 -6 -161 -12 -166 -16 -5 -3
-12 -150 -16 -328 -4 -178 -8 -334 -9 -348 l-2 -25 170 -13 c182 -14 338 -10
360 8 11 9 13 32 9 98 -14 246 -52 533 -79 598 -9 23 -21 33 -45 38 -38 7 -55
8 -61 2z"/>
<path d="M16330 3468 c-24 -13 -25 -17 -22 -103 8 -238 59 -586 90 -617 17
-17 31 -18 217 -8 109 6 203 13 207 16 4 3 8 162 8 353 l0 349 -32 6 c-17 3
-124 9 -237 12 -163 4 -211 3 -231 -8z"/>
<path d="M17533 3428 c3 -24 15 -97 26 -163 24 -142 41 -318 41 -432 0 -72 2
-83 18 -83 41 1 48 17 82 185 27 131 50 330 50 427 0 88 11 79 -117 98 -110
15 -106 17 -100 -32z"/>
<path d="M16231 3441 c-14 -26 -58 -247 -71 -356 -6 -49 -11 -139 -13 -200
l-2 -110 105 -17 c57 -9 106 -15 109 -13 2 3 -5 67 -18 143 -29 184 -39 271
-47 435 -6 135 -7 137 -30 137 -13 0 -28 -8 -33 -19z"/>
<path d="M16865 3448 c-10 -31 -22 -674 -13 -685 13 -16 164 -18 173 -3 7 12
24 670 18 688 -4 8 -31 12 -89 12 -59 0 -86 -4 -89 -12z"/>
<path d="M16130 3443 c-159 -28 -387 -97 -398 -121 -23 -45 32 -421 66 -453
23 -22 306 -98 318 -86 3 3 10 65 14 139 10 151 32 305 60 426 11 46 20 88 20
93 0 9 -34 10 -80 2z"/>
<path d="M17766 3354 c-13 -169 -38 -365 -61 -470 -13 -60 -20 -113 -16 -117
15 -15 385 74 453 109 32 16 32 15 18 155 -14 130 -47 300 -63 316 -14 14
-210 70 -277 79 l-48 6 -6 -78z"/>
<path d="M18125 3330 c-3 -5 -3 -14 0 -20 13 -21 45 -215 51 -311 6 -82 10
-99 22 -97 9 2 19 17 24 33 13 49 38 242 38 295 l0 50 -60 30 c-67 34 -67 34
-75 20z"/>
<path d="M15680 3301 c-15 -29 -38 -163 -46 -271 l-7 -89 34 -20 c35 -22 98
-46 104 -39 1 1 -6 44 -16 93 -10 50 -24 144 -30 210 -7 66 -16 124 -20 129
-4 4 -12 -1 -19 -13z"/>
<path d="M15579 3253 c-67 -47 -105 -114 -95 -168 8 -40 49 -91 94 -118 l31
-17 5 57 c9 89 27 224 33 255 7 37 -3 35 -68 -9z"/>
<path d="M18276 3203 c-8 -76 -24 -198 -32 -247 l-7 -39 42 24 c53 29 118 99
127 134 11 44 -12 99 -61 144 -24 22 -49 41 -54 41 -5 0 -12 -26 -15 -57z"/>
<path d="M15490 2997 c0 -93 61 -306 127 -449 63 -135 81 -131 44 8 -21 77
-36 177 -46 297 -4 42 -10 77 -15 77 -4 0 -31 21 -59 46 -49 44 -51 45 -51 21z"/>
<path d="M18384 2999 c-10 -11 -49 -41 -87 -66 -38 -25 -73 -56 -78 -70 -14
-37 -46 -169 -62 -256 l-15 -78 39 -47 c22 -25 39 -52 39 -59 0 -7 4 -13 9
-13 11 0 92 184 120 273 28 90 70 337 58 337 -2 0 -12 -9 -23 -21z"/>
<path d="M15635 2823 c7 -91 38 -262 55 -308 l10 -26 42 29 c24 17 62 42 85
56 l42 26 -30 72 c-16 40 -37 96 -45 124 -15 54 -17 56 -118 95 l-48 20 7 -88z"/>
<path d="M18090 2839 c-73 -27 -273 -75 -344 -84 -56 -7 -86 -24 -86 -49 0 -8
45 -24 123 -43 67 -17 162 -46 209 -66 67 -27 90 -32 97 -23 38 46 92 233 78
270 -8 19 -8 19 -77 -5z"/>
<path d="M15800 2832 c0 -16 50 -152 71 -194 l18 -36 73 23 c40 13 92 28 116
34 41 12 42 12 42 56 0 41 -3 45 -27 50 -58 13 -259 64 -275 70 -10 4 -18 3
-18 -3z"/>
<path d="M16404 2696 c-7 -19 45 -206 96 -341 63 -170 111 -265 134 -271 41
-10 188 10 199 27 6 10 7 111 1 295 l-9 279 -45 6 c-25 4 -118 10 -207 14
-143 6 -164 5 -169 -9z"/>
<path d="M17260 2700 c-58 -4 -123 -8 -146 -9 -72 -2 -70 5 -89 -304 -10 -153
-15 -281 -11 -284 3 -4 50 -10 104 -14 53 -4 129 -10 168 -14 l72 -8 57 98
c32 54 81 148 108 209 48 105 51 116 55 212 4 99 4 101 -19 108 -40 11 -189
14 -299 6z"/>
<path d="M16250 2681 c-47 -9 -91 -20 -99 -25 -27 -18 18 -321 75 -498 18 -56
26 -59 197 -81 114 -14 167 -12 167 7 0 6 -20 56 -45 111 -38 85 -110 294
-157 455 -15 53 -19 54 -138 31z"/>
<path d="M16853 2679 c-10 -10 -8 -505 3 -556 4 -21 10 -23 68 -23 l65 0 6 53
c15 123 31 513 22 525 -12 15 -148 17 -164 1z"/>
<path d="M17627 2601 c-15 -39 -36 -132 -47 -208 -11 -76 -29 -175 -40 -221
-11 -46 -20 -85 -20 -87 0 -2 8 -2 18 0 9 2 64 12 122 21 l105 17 52 53 c86
87 253 326 253 362 0 23 -265 114 -370 128 l-47 6 -26 -71z"/>
<path d="M16006 2625 c-114 -34 -115 -36 -67 -128 22 -42 60 -106 84 -142 48
-71 176 -225 187 -225 4 0 -1 30 -12 68 -27 96 -56 245 -63 332 -9 105 -13
120 -33 119 -9 0 -52 -11 -96 -24z"/>
<path d="M15805 2541 c-27 -16 -61 -41 -74 -55 l-24 -26 29 -71 c53 -133 69
-150 175 -192 90 -35 257 -83 264 -75 2 2 -19 30 -46 63 -69 83 -157 215 -204
307 -23 45 -46 78 -55 78 -8 0 -37 -13 -65 -29z"/>
<path d="M18039 2443 c-29 -49 -88 -134 -131 -190 -43 -57 -72 -103 -65 -103
7 0 44 10 83 23 67 23 70 25 100 82 41 75 98 240 90 260 -10 28 -25 15 -77
-72z"/>
<path d="M18137 2493 c-2 -4 -12 -33 -22 -63 -10 -30 -31 -88 -46 -128 -16
-40 -29 -75 -29 -78 0 -7 61 26 97 53 43 33 75 100 67 140 -6 32 -58 91 -67
76z"/>
<path d="M17498 2288 c-31 -62 -71 -137 -88 -165 l-32 -53 45 0 c70 0 82 17
112 154 14 65 25 132 23 148 -3 25 -11 14 -60 -84z"/>
<path d="M15870 2180 c0 -29 287 -260 323 -260 5 0 25 16 44 35 28 29 34 41
28 62 -12 48 -55 79 -135 97 -41 9 -117 29 -167 45 -51 16 -93 25 -93 21z"/>
<path d="M17890 2151 c-57 -18 -132 -64 -189 -117 -34 -31 -61 -59 -61 -63 1
-3 16 -24 34 -45 l34 -39 45 26 c52 31 162 146 195 206 l23 41 -28 -1 c-15 0
-39 -4 -53 -8z"/>
<path d="M16485 2039 c-73 -15 -128 -34 -132 -46 -10 -28 259 -190 411 -247
113 -43 118 -36 39 47 -38 40 -94 111 -125 159 -68 101 -86 110 -193 87z"/>
<path d="M17352 2031 c-9 -10 -43 -50 -75 -89 -56 -70 -174 -179 -217 -202
-38 -20 -15 -21 61 -1 123 32 232 78 266 113 35 36 88 142 79 157 -3 5 -26 16
-51 25 -43 14 -47 14 -63 -3z"/>
<path d="M17070 2031 c-65 -6 -65 -6 -72 -41 -14 -67 -39 -273 -34 -278 3 -2
31 10 63 29 58 34 270 234 292 277 l12 22 -98 -2 c-54 -1 -127 -4 -163 -7z"/>
<path d="M16672 1993 c52 -90 171 -233 183 -221 4 4 3 62 -1 130 l-9 123 -97
3 -98 3 22 -38z"/>
<path d="M16860 2002 c0 -42 20 -233 26 -255 7 -24 44 -43 54 -27 10 17 32
176 34 246 l1 59 -57 3 -58 3 0 -29z"/>
<path d="M16310 1977 c0 -22 82 -138 120 -168 23 -18 68 -37 130 -53 90 -24
225 -48 216 -38 -3 2 -38 19 -79 36 -104 46 -193 97 -284 164 -100 75 -103 76
-103 59z"/>
<path d="M16249 1947 c-44 -37 -45 -68 -1 -109 46 -45 127 -86 184 -93 41 -6
42 -6 23 10 -11 10 -66 40 -123 67 -56 28 -105 54 -108 59 -9 15 3 11 77 -27
39 -19 73 -33 76 -31 5 6 -87 147 -96 147 -3 0 -18 -10 -32 -23z"/>
<path d="M17535 1911 c-104 -68 -137 -95 -164 -130 l-26 -34 40 7 c60 11 256
92 279 116 l20 20 -20 27 c-30 40 -60 39 -129 -6z"/>
</g>
</svg>
